<?xml version="1.0"?>
<svg width="639" height="634" xmlns="http://www.w3.org/2000/svg" xmlns:svg="http://www.w3.org/2000/svg" enable-background="new 0 0 639 634" version="1.1" xml:space="preserve">
 <g class="layer">
  <title>Layer 1</title>
  <path d="m356.53,1c3.88,0.73 7.29,1.51 10.71,2.19c3.41,0.68 6.84,1.25 10.49,2.39c-0.28,1.17 -0.73,1.89 -1.31,2.47c-17.38,17.4 -34.77,34.8 -52.18,52.18c-0.67,0.66 -1.52,1.14 -2.33,1.73c-0.73,-0.55 -1.31,-0.89 -1.76,-1.35c-17.41,-17.38 -34.81,-34.76 -52.17,-52.19c-0.88,-0.89 -1.34,-2.2 -1.99,-3.31c5.94,-1.1 11.87,-2.21 17.91,-3.72c24.12,-0.39 48.14,-0.39 72.63,-0.39z" fill="#242424" id="svg_5" opacity="1"/>
  <path d="m640,347.53c-0.59,1.76 -1.5,3 -1.71,4.34c-1.12,7.12 -2.07,14.27 -3.57,21.73c-1.9,-0.81 -3.41,-1.84 -4.69,-3.1c-15.79,-15.75 -31.55,-31.52 -47.32,-47.29c-4.65,-4.66 -4.68,-4.71 0.07,-9.47c15.99,-16.01 31.99,-32.02 48.03,-47.99c1.13,-1.12 2.65,-1.85 3.98,-2.76c1.48,10.24 2.96,20.49 4.82,30.87c0.39,17.83 0.39,35.52 0.39,53.67z" fill="#242424" id="svg_6" opacity="1"/>
  <path d="m378.16,632.59c-2.98,0.55 -5.97,1.1 -9.06,2.03c-32.45,0.38 -64.81,0.38 -97.63,0.38c-2.24,-0.65 -4.01,-1.3 -6.09,-2.41c0.61,-1.61 1.44,-2.87 2.48,-3.91c16.55,-16.59 33.2,-33.09 49.64,-49.8c3.09,-3.14 4.95,-3.11 8.02,0.01c16.44,16.71 33.1,33.2 49.64,49.81c1.15,1.15 2.01,2.58 3,3.89z" fill="#232323" id="svg_7" opacity="1"/>
  <path d="m3.09,347.98c-0.51,0.27 -1.03,0.54 -1.82,0.91c-0.27,-19.58 -0.27,-39.27 -0.27,-59.42c0.51,-0.2 1.03,0.06 1.91,0.89c-0.06,10.49 -0.78,20.42 -0.82,30.35c-0.04,9.09 0.64,18.18 1,27.27z" fill="#E7E9ED" id="svg_8" opacity="1"/>
  <path d="m1,634.5c0.34,-0.42 0.6,-0.23 0.89,0.28c-0.22,0.22 -0.56,0.22 -0.89,-0.28z" fill="#E7E9ED" id="svg_9" opacity="1"/>
  <path d="m1.5,1c0.39,0.32 0.21,0.59 -0.28,0.9c-0.22,-0.23 -0.22,-0.57 0.28,-0.9z" fill="#E7E9ED" id="svg_10" opacity="1"/>
  <path d="m378.53,632.63c-1.36,-1.35 -2.22,-2.78 -3.37,-3.93c-16.54,-16.61 -33.2,-33.1 -49.64,-49.81c-3.07,-3.12 -4.93,-3.15 -8.02,-0.01c-16.44,16.71 -33.09,33.21 -49.64,49.8c-1.04,1.04 -1.87,2.3 -2.83,3.78c-0.6,0.32 -1.17,0.3 -1.9,-0.25c1.02,-2.1 2.04,-3.82 3.41,-5.2c16.46,-16.54 32.95,-33.04 49.51,-49.48c1.27,-1.25 3.12,-1.91 3.71,-2.26c-21.57,-21.58 -42.01,-42.03 -62.62,-62.65c-0.45,0.4 -1.47,1.23 -2.4,2.15c-18.27,18.26 -36.47,36.59 -54.87,54.73c-3.14,3.1 -3.08,4.96 0.04,8.03c16.04,15.77 31.89,31.73 47.75,47.69c1.35,1.35 2.24,3.16 3.34,4.75c-1.14,-0.21 -2.27,-0.43 -3.74,-1.17c-4.28,-4.77 -8.14,-9.11 -12.22,-13.22c-13.36,-13.47 -26.81,-26.85 -40.34,-40.39c-7.81,7.71 -15.39,15.16 -22.9,22.67c-0.52,0.52 -0.57,1.51 -0.84,2.28c-1.06,-0.44 -2.13,-0.88 -3.06,-1.72c8.11,-8.81 16.07,-17.21 23.25,-24.78c-20,-20 -40.42,-40.42 -61.15,-61.16c-9.37,9.38 -19.21,19.27 -29.13,29.09c-1.36,1.34 -3.14,2.25 -4.73,3.36c0,0 -0.08,0.02 -0.08,-0.38c1.04,-2.01 1.85,-3.85 3.16,-5.19c8.51,-8.66 16.98,-17.36 25.79,-25.71c3.45,-3.27 3.09,-5.23 -0.12,-8.38c-18.12,-17.86 -36.04,-35.92 -54.04,-53.9c-1.15,-1.15 -2.38,-2.22 -4.03,-3.74c-7.11,7.13 -13.97,14.08 -20.93,20.93c-1.37,1.34 -3.12,2.29 -4.7,3.42c0,0 -0.3,-0.31 -0.15,-0.84c8.11,-8.67 16.08,-16.81 24.08,-24.98c-0.69,-0.94 -1.01,-1.52 -1.47,-1.97c-16.41,-16.44 -32.83,-32.88 -49.29,-49.26c-0.88,-0.88 -2.2,-1.3 -3.32,-1.93c-0.37,-1.1 -0.73,-2.2 -0.73,-3.62c1.9,0.92 3.56,2.03 4.95,3.41c15.94,15.88 31.83,31.81 47.75,47.7c1.25,1.25 2.6,2.4 3.92,3.62c0.93,-0.72 1.5,-1.07 1.96,-1.53c18.99,-18.96 37.93,-37.97 56.98,-56.87c2.54,-2.52 2.25,-4.19 -0.14,-6.56c-18.69,-18.55 -37.28,-37.21 -55.91,-55.81c-0.89,-0.88 -1.98,-1.57 -3.84,-3.02c-1.27,1.71 -2.21,3.35 -3.49,4.64c-16.46,16.54 -32.95,33.04 -49.51,49.49c-1.46,1.45 -3.43,2.39 -5.16,3.57c-0.18,-0.4 -0.35,-0.81 -0.13,-1.64c1.18,-1.06 2.02,-1.62 2.72,-2.31c17.53,-17.51 35.06,-35.04 52.56,-52.58c0.78,-0.77 1.32,-1.78 1.99,-2.68c-0.61,-0.75 -0.98,-1.31 -1.44,-1.77c-17.63,-17.65 -35.27,-35.3 -52.94,-52.92c-0.91,-0.91 -2.13,-1.51 -3.2,-2.25c0.08,-0.74 0.17,-1.47 0.77,-2.5c2.05,0.93 3.71,2.04 5.1,3.42c16.64,16.58 33.32,33.13 49.78,49.88c3.26,3.32 5.25,3.78 8.76,0.2c17.85,-18.2 35.97,-36.13 53.99,-54.17c1.14,-1.13 2.16,-2.39 3.32,-3.67c-0.77,-0.95 -1.23,-1.64 -1.8,-2.21c-18.84,-18.86 -37.74,-37.66 -56.49,-56.6c-2.79,-2.82 -4.5,-2.13 -6.93,0.32c-16.3,16.45 -32.7,32.81 -49.12,49.13c-1.35,1.35 -3.16,2.23 -4.76,3.33c0.3,-1.44 0.6,-2.87 1.38,-4.68c1.28,-0.95 2.18,-1.42 2.87,-2.1c16.34,-16.31 32.67,-32.63 48.98,-48.98c0.66,-0.66 1.14,-1.51 0.86,-1.13c-7.99,-8.64 -15.64,-16.91 -23.28,-25.17c0.2,-0.56 0.4,-1.12 1.17,-1.68c8.68,7.98 16.8,15.96 24.34,23.36c20.9,-20.9 41.3,-41.3 61.92,-61.93c-9.36,-9.34 -19.14,-19.05 -28.83,-28.84c-1.34,-1.36 -2.25,-3.14 -3.35,-4.73c0,0 -0.01,-0.08 0.36,-0.03c1.79,1.17 3.31,2.18 4.58,3.44c8.4,8.33 16.88,16.58 25.04,25.14c3.2,3.36 5.24,3.79 8.75,0.2c17.85,-18.19 35.97,-36.12 53.98,-54.16c1.14,-1.14 2.17,-2.39 3.73,-4.12c-8.58,-8.14 -16.88,-16 -25.17,-23.86c0.97,-0.62 1.94,-1.23 3.4,-1.56c6.91,6.81 13.49,13.2 19.72,19.9c2.95,3.18 4.9,3.28 8.03,0.09c14.81,-15.11 29.86,-29.97 44.78,-44.97c1.12,-1.13 1.85,-2.65 2.76,-3.98c1.41,-0.42 2.82,-0.83 4.57,-0.87c-0.79,1.79 -1.79,3.31 -3.05,4.58c-15.63,15.69 -31.3,31.33 -46.95,47c-1.26,1.25 -2.44,2.58 -3.81,4.04c1.31,1.44 2.26,2.57 3.3,3.61c18.12,18.13 36.34,36.18 54.3,54.47c3.37,3.43 5.27,2.98 8.39,-0.18c17.88,-18.14 35.96,-36.08 53.96,-54.11c1.14,-1.14 2.18,-2.38 4.3,-4.73c-1.77,-1.21 -3.48,-2.04 -4.76,-3.3c-16.29,-16.2 -32.54,-32.44 -48.72,-48.75c-1.57,-1.58 -2.56,-3.73 -3.82,-5.62c0.56,-0.12 1.12,-0.24 1.98,-0.3c0.93,1.17 1.39,2.48 2.27,3.37c17.36,17.43 34.76,34.81 52.17,52.19c0.45,0.46 1.03,0.8 1.76,1.35c0.81,-0.59 1.66,-1.07 2.33,-1.73c17.41,-17.38 34.8,-34.78 52.18,-52.18c0.58,-0.58 1.03,-1.3 1.65,-2.31c0.55,-0.34 0.98,-0.33 1.65,0.24c-0.97,2.1 -2.03,3.78 -3.41,5.16c-16.21,16.28 -32.46,32.51 -48.7,48.76c-1.26,1.26 -2.45,2.59 -3.32,3.51c20.79,20.79 41.22,41.22 61.09,61.1c20.05,-20.05 40.48,-40.48 62.03,-62.02c-1.03,-0.68 -2.79,-1.45 -4.06,-2.71c-15.36,-15.25 -30.66,-30.55 -45.9,-45.91c-1.45,-1.46 -2.34,-3.46 -3.49,-5.2c0.77,0.12 1.54,0.24 2.71,0.84c17.54,17.7 34.69,34.9 51.84,52.1c0.1,0.1 0.32,0.06 1.04,0.16c1.16,-1.1 2.58,-2.45 3.98,-3.81c6.57,-6.36 13.14,-12.72 19.71,-19.08c0,0 0.43,0 0.55,0.48c-7.51,8.5 -15.13,16.53 -22.93,24.75c1.35,1.44 2.43,2.66 3.59,3.82c17.88,17.9 35.88,35.69 53.58,53.77c3.67,3.74 5.71,3.34 9.12,-0.19c9.36,-9.68 19.11,-18.99 28.71,-28.45c0.3,0.19 0.61,0.37 0.96,1.15c-1.08,2 -2.09,3.51 -3.35,4.78c-8.31,8.38 -16.68,16.7 -25,25.06c-1.25,1.24 -2.39,2.59 -4.31,4.69c3.13,2.73 6.02,4.99 8.6,7.56c16.73,16.64 33.39,33.36 50.09,50.02c1.57,1.56 3.16,4.14 5.72,1.53c7.29,-7.46 14.48,-15.03 21.71,-22.56c0.61,0.99 1.22,1.97 1.5,3.35c-6.8,6.53 -13.17,12.8 -19.8,18.79c-3.17,2.86 -3.41,4.83 -0.17,8c15.08,14.78 29.91,29.81 44.88,44.7c1.13,1.13 2.59,1.94 3.9,2.9c0.23,0.74 0.45,1.48 0.33,2.58c-1.91,-0.83 -3.62,-1.86 -4.99,-3.23c-15.23,-15.15 -30.43,-30.32 -45.53,-45.59c-1.23,-1.24 -1.68,-3.25 -1.85,-3.61c-21.85,21.85 -42.27,42.27 -62.08,62.07c19.87,19.87 40.29,40.29 61.12,61.12c0.68,-0.79 1.69,-2.12 2.85,-3.29c16.23,-16.26 32.46,-32.53 48.77,-48.71c1.46,-1.45 3.46,-2.37 5.21,-3.54c0.16,0.54 0.33,1.07 0.43,1.88c-1.39,1.19 -2.91,1.92 -4.04,3.04c-16.04,15.97 -32.04,31.98 -48.03,47.99c-4.75,4.76 -4.72,4.81 -0.07,9.47c15.77,15.77 31.53,31.54 47.32,47.29c1.28,1.26 2.79,2.29 4.53,3.47c0.33,0.61 0.33,1.19 -0.18,1.94c-2.1,-0.97 -3.86,-1.95 -5.23,-3.31c-15.81,-15.73 -31.56,-31.51 -47.33,-47.28c-5.3,-5.3 -5.31,-5.31 -10.53,-0.1c-17.66,17.65 -35.31,35.3 -52.95,52.96c-1.15,1.15 -2.21,2.39 -2.57,2.78c20.91,20.92 41.53,41.54 62.91,62.92c0.6,-0.82 1.49,-2.5 2.77,-3.79c14.55,-14.63 29.12,-29.24 43.81,-43.75c1.52,-1.5 3.8,-2.24 5.73,-3.34c-0.03,0.45 -0.05,0.91 -0.56,1.71c-1.14,0.85 -1.88,1.26 -2.45,1.84c-15.77,15.73 -31.52,31.48 -47.25,47.25c-0.66,0.66 -1.11,1.54 -1.66,2.31c0.44,-0.3 0.88,-0.61 1.32,-0.92c7.26,7.96 14.52,15.91 21.79,23.87c-0.45,1.06 -0.9,2.12 -1.76,3.03c-6.92,-6.8 -13.57,-13.33 -19.89,-20.18c-2.97,-3.22 -4.92,-3.2 -8.02,-0.05c-18.13,18.39 -36.46,36.58 -54.71,54.85c-1.01,1.02 -1.88,2.18 -3.09,3.59c9.82,9.79 19.39,19.27 28.87,28.84c1.34,1.36 2.25,3.15 3.36,4.73c0,0 0.02,0.08 -0.36,0.04c-1.78,-1.16 -3.29,-2.17 -4.56,-3.43c-8.38,-8.31 -16.71,-16.68 -25.07,-25.01c-1.24,-1.24 -2.59,-2.39 -3.82,-3.51c-0.87,0.58 -1.34,0.79 -1.68,1.14c-19.18,19.14 -38.31,38.33 -57.54,57.42c-2.41,2.39 -1.94,4.02 0.23,6.19c7.05,7.04 13.94,14.23 20.89,21.36c-0.46,0.35 -0.91,0.7 -1.81,0.76c-6.86,-6.79 -13.46,-13.12 -19.62,-19.86c-3.25,-3.57 -5.26,-2.99 -8.37,0.17c-15.02,15.3 -30.26,30.37 -45.38,45.56c-1.13,1.14 -1.93,2.6 -2.88,3.92c-0.43,0.14 -0.86,0.28 -1.63,0.03c0.81,-2.13 1.71,-4.12 3.15,-5.57c14.89,-15.01 29.87,-29.93 44.8,-44.89c4.65,-4.66 4.62,-4.77 -0.07,-9.46c-17.77,-17.78 -35.54,-35.55 -53.33,-53.31c-1.24,-1.24 -2.59,-2.37 -3.26,-2.97c-20.79,20.88 -41.13,41.32 -62.19,62.47c0.52,0.37 2.19,1.27 3.48,2.56c16.63,16.55 33.23,33.14 49.78,49.79c1.34,1.35 2.21,3.16 3.3,4.76c-0.7,0.21 -1.4,0.42 -2.47,0.6m-62.58,-447.18c-0.03,0.18 -0.07,0.36 -0.78,0.46c-1.4,-1.14 -2.9,-2.18 -4.17,-3.45c-16.38,-16.33 -32.72,-32.7 -49.09,-49.04c-1.24,-1.24 -2.59,-2.37 -3.82,-3.48c-0.89,0.63 -1.35,0.86 -1.7,1.21c-19.07,19.05 -38.09,38.15 -57.25,57.11c-2.9,2.87 -1.89,4.57 0.48,6.92c18.53,18.41 36.97,36.92 55.46,55.37c0.9,0.9 1.97,1.62 3.29,2.68c6.77,-6.81 13.3,-13.43 19.92,-19.96c1.01,-0.99 2.48,-1.52 3.66,-1.58c-1.24,1.53 -2.35,3.18 -3.74,4.57c-25.63,25.68 -51.3,51.34 -76.96,77c-0.95,0.94 -2.32,1.74 -2.71,2.87c-0.5,1.41 -0.89,3.79 -0.12,4.56c9.82,9.92 19.85,19.63 29.72,29.86c0,0 -0.18,0.45 -0.73,0.67c-1.32,-0.75 -2.87,-1.27 -3.92,-2.3c-8.42,-8.28 -16.87,-16.53 -25.02,-25.08c-3.09,-3.24 -4.99,-2.97 -8.02,0.09c-18.1,18.36 -36.4,36.52 -54.62,54.77c-1.02,1.01 -1.89,2.17 -3.14,3.62c9.79,9.74 19.36,19.2 28.81,28.76c1.45,1.46 2.37,3.44 2.91,5.44c-0.22,0.06 -0.44,0.12 -1.33,-0.06c-0.7,-0.13 -1.39,-0.27 -2.14,-1.1c-0.99,-1.3 -1.85,-2.72 -2.99,-3.88c-7.74,-7.81 -15.67,-15.42 -23.23,-23.4c-3.15,-3.34 -5.11,-3.38 -8.39,-0.05c-17.98,18.29 -36.2,36.34 -54.32,54.48c-1.03,1.04 -1.96,2.17 -3.06,3.41c0.64,0.85 1.06,1.56 1.62,2.12c18.94,18.97 37.94,37.89 56.82,56.93c2.62,2.65 4.29,1.94 6.56,-0.35c13.36,-13.49 26.84,-26.85 40.19,-40.35c1.3,-1.31 1.93,-3.27 3.64,-5.14c1.03,-0.17 2.06,-0.34 3.64,-0.22c0.19,0.09 0.38,0.19 0.47,0.94c-1.15,1.4 -2.18,2.91 -3.45,4.18c-14,14.05 -28.03,28.05 -42.04,42.09c-1.24,1.23 -2.35,2.59 -3.58,3.95c1.31,1.41 2.18,2.41 3.11,3.35c18.14,18.15 36.37,36.22 54.37,54.51c3.23,3.29 5.13,3.33 8.39,0.02c18,-18.3 36.22,-36.36 54.36,-54.52c1.02,-1.03 1.93,-2.17 4.04,-4.56c-2.67,-2.06 -5.39,-3.76 -7.58,-5.98c-2.74,-2.78 -5.04,-5.99 -6.9,-9.22c0.21,-0.1 0.41,-0.19 1.28,-0.03c0.7,0.13 1.41,0.26 2.17,1.07c3.45,3.73 6.82,7.53 10.43,11.11c0.68,0.67 2.89,0.98 3.38,0.48c3.85,-3.96 7.45,-8.16 11.79,-12.5c0.69,-0.09 1.38,-0.18 2.16,0.46c-3.23,3.71 -6.18,7.71 -9.77,11.02c-3.4,3.15 -3.31,5.16 0,8.41c18.28,18 36.34,36.22 54.49,54.34c1.03,1.03 2.18,1.95 4.82,4.29c1.01,-1.79 1.63,-3.71 2.89,-4.98c17.48,-17.62 35.06,-35.15 52.61,-52.7c5.13,-5.14 5.02,-5.03 -0.05,-10.41c-3.1,-3.29 -5.78,-6.99 -7.93,-10.59c0.7,0.12 1.41,0.25 2.18,1.06c4.05,4.43 8.1,8.85 12.66,13.84c4.51,-5.33 8.39,-9.92 12.97,-14.74c0.71,-0.03 1.43,-0.06 2.19,0.64c-2.93,3.32 -5.74,6.76 -8.81,9.95c-4.99,5.18 -5.06,5.12 -0.14,10.04c17.54,17.54 35.08,35.07 52.62,52.61c4.89,4.89 4.96,4.92 9.81,0.08c17.91,-17.88 35.79,-35.78 53.67,-53.68c1.03,-1.03 1.94,-2.18 4.26,-4.8c-1.79,-1.02 -3.69,-1.64 -4.96,-2.9c-14.08,-13.94 -28.08,-27.95 -42.04,-42.01c-1.33,-1.35 -2.19,-3.18 -2.47,-4.91c1.05,0.16 2.11,0.32 3.16,1.18c0.98,1.47 1.76,3.16 2.98,4.4c13.49,13.59 27.04,27.11 40.6,40.64c1.03,1.03 2.17,1.93 3.24,2.88c0.71,-0.39 1.22,-0.53 1.54,-0.86c19.34,-19.28 38.63,-38.61 58,-57.86c2.65,-2.63 1.16,-4.24 -0.77,-6.17c-18.51,-18.46 -37.03,-36.9 -55.42,-55.49c-2.77,-2.8 -4.56,-2.83 -7.29,0c-7.97,8.27 -16.23,16.27 -24.28,24.46c-1.1,1.12 -1.73,2.7 -3.21,4.34c-0.69,0.06 -1.37,0.13 -2.17,-0.55c0.97,-1.47 1.74,-3.15 2.95,-4.38c8.18,-8.3 16.32,-16.66 24.77,-24.69c3.31,-3.16 3.4,-5.11 0.06,-8.4c-18.29,-17.98 -36.34,-36.2 -54.49,-54.32c-1.03,-1.03 -2.17,-1.96 -3.52,-3.16c-1.39,1.28 -2.63,2.34 -3.78,3.48c-8.84,8.82 -17.63,17.7 -26.54,26.45c-1.34,1.32 -3.2,2.1 -5.01,2.42c0.1,-0.73 0.19,-1.46 0.98,-2.25c1.07,-0.75 2.26,-1.37 3.17,-2.28c9.09,-9.02 18.15,-18.08 27.18,-27.17c0.77,-0.77 1.32,-1.77 2.68,-3.63c-1.6,-1.15 -3.27,-2.04 -4.56,-3.33c-26.5,-26.43 -52.97,-52.88 -79.38,-79.4c-1.72,-1.72 -2.92,-3.95 -4.47,-6.37c-0.05,-0.3 -0.01,-0.6 0.8,-0.67c7.02,6.84 14.21,13.52 20.99,20.59c3.22,3.35 5.24,3.78 8.76,0.2c17.82,-18.18 35.92,-36.08 53.91,-54.09c1.15,-1.15 2.19,-2.39 3.46,-3.77c-1.22,-1.36 -2.15,-2.49 -3.18,-3.53c-18.11,-18.12 -36.31,-36.17 -54.28,-54.43c-3.25,-3.29 -5.15,-3.31 -8.39,0c-17.03,17.32 -34.27,34.44 -51.49,51.57c-1.36,1.35 -3.14,2.28 -4.9,2.66c0.08,-0.76 0.16,-1.52 0.91,-2.37c0.93,-0.68 1.96,-1.25 2.76,-2.05c17.33,-17.29 34.58,-34.66 52,-51.85c2.97,-2.93 2.35,-4.69 -0.28,-7.29c-18.45,-18.29 -36.78,-36.7 -55.16,-55.06c-0.92,-0.91 -1.95,-1.71 -3.09,-2.7c-0.81,0.61 -1.52,1.02 -2.08,1.58c-18.97,18.94 -37.89,37.94 -56.93,56.82c-2.62,2.6 -2.01,4.27 0.31,6.55c12.43,12.3 24.79,24.67 37.11,37.08c5.27,5.3 10.39,10.74 15.56,16.54c0,0 0.1,0.39 -0.08,0.91m-114.95,125.05c18.43,-18.43 36.85,-36.86 54.59,-54.59c-20.99,-21 -41.41,-41.41 -60.96,-60.95c-19.96,19.96 -40.39,40.39 -60.31,60.31c19.91,19.9 40.33,40.33 61.37,61.37c1.37,-1.6 3.09,-3.62 5.31,-6.14m270,-223c-7.26,-7.25 -14.52,-14.5 -21.89,-21.85c-1.64,1.53 -2.75,2.51 -3.8,3.56c-18.04,18.02 -35.97,36.15 -54.18,54c-3.58,3.52 -3.1,5.5 0.21,8.76c18.05,17.77 35.88,35.76 53.8,53.66c1.16,1.15 2.39,2.22 3.73,3.46c0.89,-0.67 1.6,-1.08 2.16,-1.64c18.98,-18.96 37.92,-37.97 56.97,-56.86c2.69,-2.66 1.84,-4.33 -0.41,-6.56c-12.08,-11.96 -24.07,-24.01 -36.59,-36.53m-297,-1c-13.76,13.72 -27.51,27.45 -41.37,41.28c1.41,1.56 2.24,2.58 3.17,3.5c18.25,18.28 36.59,36.47 54.72,54.87c3.14,3.18 4.99,3 8.03,-0.08c18.02,-18.27 36.24,-36.35 54.37,-54.51c1.13,-1.13 2.13,-2.37 3.35,-3.74c-20.05,-20.07 -39.73,-39.74 -59.37,-59.44c-2.19,-2.19 -3.74,-1.09 -5.44,0.64c-5.63,5.69 -11.31,11.32 -17.46,17.48m-25.5,149.5c13.31,-13.32 26.52,-26.75 40.02,-39.87c3.55,-3.45 3.88,-5.48 0.15,-9.13c-18.1,-17.72 -35.9,-35.74 -53.82,-53.64c-1.15,-1.15 -2.39,-2.22 -3.8,-3.52c-1.33,1.18 -2.48,2.1 -3.51,3.13c-18.16,18.13 -36.22,36.37 -54.52,54.36c-3.36,3.3 -3.17,5.2 0.07,8.4c18.17,17.89 36.13,35.99 54.17,54.01c1.14,1.14 2.39,2.18 4.17,3.79c5.69,-5.85 11.13,-11.44 17.07,-17.53m349,33c4.64,-4.48 9.27,-8.95 13.97,-13.48c-1.12,-1.4 -1.57,-2.09 -2.14,-2.66c-18.84,-18.87 -37.74,-37.68 -56.5,-56.63c-2.77,-2.8 -4.48,-2.18 -6.93,0.29c-18.55,18.69 -37.2,37.28 -55.81,55.91c-0.78,0.78 -1.36,1.77 -2.06,2.69c0.58,0.74 0.93,1.31 1.39,1.77c18.96,18.99 37.98,37.91 56.85,56.98c2.89,2.92 4.59,1.85 6.92,-0.5c14.55,-14.68 29.2,-29.26 44.31,-44.37m-418.5,39.5c-2,2 -3.86,4.19 -6.04,5.97c-3.38,2.76 -3.3,4.87 -0.12,8.01c18.4,18.13 36.6,36.47 54.87,54.72c1.02,1.01 2.18,1.89 3.3,2.84c0.85,-0.65 1.42,-1 1.88,-1.45c18.98,-18.97 37.92,-37.97 56.97,-56.87c2.54,-2.52 2.26,-4.18 -0.13,-6.56c-18.81,-18.67 -37.51,-37.44 -56.27,-56.16c-0.77,-0.77 -1.78,-1.3 -2.9,-2.1c-17.15,17.17 -34.11,34.13 -51.56,51.6m424,-65c3.25,3.25 6.51,6.49 9.76,9.74c1.11,-0.86 1.68,-1.21 2.14,-1.67c18.98,-18.96 37.92,-37.97 56.97,-56.86c2.55,-2.53 2.23,-4.2 -0.15,-6.57c-18.69,-18.55 -37.27,-37.2 -55.91,-55.8c-0.89,-0.89 -1.97,-1.57 -2.97,-2.35c-0.83,0.69 -1.38,1.07 -1.85,1.53c-18.86,18.85 -37.66,37.76 -56.63,56.5c-3.02,2.99 -2.2,4.74 0.38,7.29c15.98,15.83 31.85,31.78 48.26,48.19m-50.49,76.34c20.2,20 40.4,40 60.73,60.12c1.1,-1 2.12,-1.83 3.05,-2.76c18.27,-18.26 36.47,-36.6 54.86,-54.72c3.19,-3.15 2.99,-5 -0.08,-8.03c-18.27,-18.03 -36.36,-36.24 -54.51,-54.37c-1.13,-1.13 -2.37,-2.13 -3.49,-3.13c-0.88,0.62 -1.33,0.86 -1.68,1.2c-19.1,19.08 -38.21,38.15 -57.25,57.29c-0.95,0.95 -1.31,2.49 -1.63,4.4z" fill="#171717" id="svg_11" opacity="1"/>
  <path d="m9.78,249.32c1.82,-1.42 3.63,-2.3 4.98,-3.65c16.42,-16.32 32.82,-32.68 49.12,-49.13c2.43,-2.45 4.14,-3.14 6.93,-0.32c18.75,18.94 37.65,37.74 56.49,56.6c0.57,0.57 1.03,1.26 1.8,2.21c-1.16,1.28 -2.18,2.54 -3.32,3.67c-18.02,18.04 -36.14,35.97 -53.99,54.17c-3.51,3.58 -5.5,3.12 -8.76,-0.2c-16.46,-16.75 -33.14,-33.3 -49.78,-49.88c-1.39,-1.38 -3.05,-2.49 -4.92,-3.76c0.18,-3.15 0.71,-6.27 1.45,-9.71z" fill="#232323" id="svg_12" opacity="1"/>
  <path d="m263.3,5.32c1.69,1.92 2.68,4.07 4.25,5.65c16.18,16.31 32.43,32.55 48.72,48.75c1.28,1.26 2.99,2.09 4.76,3.3c-2.12,2.35 -3.16,3.59 -4.3,4.73c-18,18.03 -36.08,35.97 -53.96,54.11c-3.12,3.16 -5.02,3.61 -8.39,0.18c-17.96,-18.29 -36.18,-36.34 -54.3,-54.47c-1.04,-1.04 -1.99,-2.17 -3.3,-3.61c1.37,-1.46 2.55,-2.79 3.81,-4.04c15.65,-15.67 31.32,-31.31 46.95,-47c1.26,-1.27 2.26,-2.79 3.42,-4.55c4,-1.25 7.96,-2.16 12.34,-3.05z" fill="#232323" id="svg_13" opacity="1"/>
  <path d="m95.75,93.24c1.41,1.47 2.32,3.25 3.66,4.61c9.69,9.79 19.47,19.5 28.83,28.84c-20.62,20.63 -41.02,41.03 -61.92,61.93c-7.54,-7.4 -15.66,-15.38 -24.08,-23.5c9.11,-18.6 21.14,-35.3 34.42,-51.1c5.98,-7.12 12.5,-13.79 19.09,-20.78z" fill="#242424" id="svg_14" opacity="1"/>
  <path d="m167.01,39.81c8.61,7.78 16.91,15.64 25.49,23.78c-1.56,1.73 -2.59,2.98 -3.73,4.12c-18.01,18.04 -36.13,35.97 -53.98,54.16c-3.51,3.59 -5.55,3.16 -8.75,-0.2c-8.16,-8.56 -16.64,-16.81 -25.04,-25.14c-1.27,-1.26 -2.79,-2.27 -4.54,-3.43c20.49,-21.35 44.16,-38.87 70.55,-53.29z" fill="#242424" id="svg_15" opacity="1"/>
  <path d="m7.22,262.2c1.23,0.41 2.45,1.01 3.36,1.92c17.67,17.62 35.31,35.27 52.94,52.92c0.46,0.46 0.83,1.02 1.44,1.77c-0.67,0.9 -1.21,1.91 -1.99,2.68c-17.5,17.54 -35.03,35.07 -52.56,52.58c-0.7,0.69 -1.54,1.25 -2.68,1.97c-1.69,-9.02 -3.02,-18.15 -4.49,-27.67c-0.51,-9.48 -1.19,-18.57 -1.15,-27.66c0.04,-9.93 0.76,-19.86 1.09,-30.24c1.23,-9.61 2.55,-18.77 4.04,-28.27z" fill="#242424" id="svg_16" opacity="1"/>
  <path d="m40.53,167.14c7.92,8.06 15.57,16.33 23.56,24.97c0.28,-0.38 -0.2,0.47 -0.86,1.13c-16.31,16.35 -32.64,32.67 -48.98,48.98c-0.69,0.68 -1.59,1.15 -2.72,1.76c3.48,-18.97 10.19,-37.03 18.01,-54.68c3.29,-7.45 7.13,-14.65 10.99,-22.16z" fill="#252525" id="svg_17" opacity="1"/>
  <path d="m245.62,9.17c-0.51,1.37 -1.24,2.89 -2.36,4.02c-14.92,15 -29.97,29.86 -44.78,44.97c-3.13,3.19 -5.08,3.09 -8.03,-0.09c-6.23,-6.7 -12.81,-13.09 -19.37,-19.92c19.75,-11.84 41.11,-19.76 63.1,-26.13c3.65,-1.06 7.36,-1.93 11.44,-2.85z" fill="#252525" id="svg_18" opacity="1"/>
  <path d="m393.67,8.43c1.44,1.98 2.33,3.98 3.78,5.44c15.24,15.36 30.54,30.66 45.9,45.91c1.27,1.26 3.03,2.03 4.06,2.71c-21.55,21.54 -41.98,41.97 -62.03,62.02c-19.87,-19.88 -40.3,-40.31 -61.09,-61.1c0.87,-0.92 2.06,-2.25 3.32,-3.51c16.24,-16.25 32.49,-32.48 48.7,-48.76c1.38,-1.38 2.44,-3.06 3.68,-4.97c4.49,0.44 8.94,1.23 13.68,2.26z" fill="#232323" id="svg_19" opacity="1"/>
  <path d="m634.44,260.41c-1.77,1.59 -3.77,2.51 -5.23,3.96c-16.31,16.18 -32.54,32.45 -48.77,48.71c-1.16,1.17 -2.17,2.5 -2.85,3.29c-20.83,-20.83 -41.25,-41.25 -61.12,-61.12c19.81,-19.8 40.23,-40.22 62.08,-62.07c0.17,0.36 0.62,2.37 1.85,3.61c15.1,15.27 30.3,30.44 45.53,45.59c1.37,1.37 3.08,2.4 5,3.62c1.43,4.69 2.48,9.34 3.51,14.41z" fill="#232323" id="svg_20" opacity="1"/>
  <path d="m545.72,92.76c-9.46,9.76 -19.21,19.07 -28.57,28.75c-3.41,3.53 -5.45,3.93 -9.12,0.19c-17.7,-18.08 -35.7,-35.87 -53.58,-53.77c-1.16,-1.16 -2.24,-2.38 -3.59,-3.82c7.8,-8.22 15.42,-16.25 23.08,-24.6c26.58,13.84 50.24,31.88 71.78,53.25z" fill="#242424" id="svg_21" opacity="1"/>
  <path d="m600.19,164.97c-7.14,7.85 -14.33,15.42 -21.62,22.88c-2.56,2.61 -4.15,0.03 -5.72,-1.53c-16.7,-16.66 -33.36,-33.38 -50.09,-50.02c-2.58,-2.57 -5.47,-4.83 -8.6,-7.56c1.92,-2.1 3.06,-3.45 4.31,-4.69c8.32,-8.36 16.69,-16.68 25,-25.06c1.26,-1.27 2.27,-2.78 3.44,-4.52c21.35,20.47 38.85,44.14 53.28,70.5z" fill="#242424" id="svg_22" opacity="1"/>
  <path d="m473.03,38.6c-6.36,6.64 -12.93,13 -19.5,19.36c-1.4,1.36 -2.82,2.71 -3.98,3.81c-0.72,-0.1 -0.94,-0.06 -1.04,-0.16c-17.15,-17.2 -34.3,-34.4 -51.49,-51.93c24.69,5.13 48.01,14.41 70.5,25.89c1.78,0.9 3.53,1.83 5.51,3.03z" fill="#252525" id="svg_23" opacity="1"/>
  <path d="m630.62,242.65c-1.34,-0.58 -2.8,-1.39 -3.93,-2.52c-14.97,-14.89 -29.8,-29.92 -44.88,-44.7c-3.24,-3.17 -3,-5.14 0.17,-8c6.63,-5.99 13,-12.26 19.84,-18.44c10.79,17.77 18.04,36.92 24.21,56.52c1.74,5.52 3.09,11.17 4.59,17.14z" fill="#252525" id="svg_24" opacity="1"/>
  <path d="m7.77,378.44c1.78,-1.6 3.75,-2.54 5.21,-3.99c16.56,-16.45 33.05,-32.95 49.51,-49.49c1.28,-1.29 2.22,-2.93 3.49,-4.64c1.86,1.45 2.95,2.14 3.84,3.02c18.63,18.6 37.22,37.26 55.91,55.81c2.39,2.37 2.68,4.04 0.14,6.56c-19.05,18.9 -37.99,37.91 -56.98,56.87c-0.46,0.46 -1.03,0.81 -1.96,1.53c-1.32,-1.22 -2.67,-2.37 -3.92,-3.62c-15.92,-15.89 -31.81,-31.82 -47.75,-47.7c-1.39,-1.38 -3.05,-2.49 -4.92,-3.76c-1.11,-3.41 -1.87,-6.8 -2.57,-10.59z" fill="#232323" id="svg_25" opacity="1"/>
  <path d="m251.33,630.18c-1.43,-1.8 -2.32,-3.61 -3.67,-4.96c-15.86,-15.96 -31.71,-31.92 -47.75,-47.69c-3.12,-3.07 -3.18,-4.93 -0.04,-8.03c18.4,-18.14 36.6,-36.47 54.87,-54.73c0.93,-0.92 1.95,-1.75 2.4,-2.15c20.61,20.62 41.05,41.07 62.62,62.65c-0.59,0.35 -2.44,1.01 -3.71,2.26c-16.56,16.44 -33.05,32.94 -49.51,49.48c-1.37,1.38 -2.39,3.1 -3.64,5.04c-3.79,-0.31 -7.52,-0.98 -11.57,-1.87z" fill="#232323" id="svg_26" opacity="1"/>
  <path d="m41.25,472.32c1.52,-1.47 3.27,-2.42 4.64,-3.76c6.96,-6.85 13.82,-13.8 20.93,-20.93c1.65,1.52 2.88,2.59 4.03,3.74c18,17.98 35.92,36.04 54.04,53.9c3.21,3.15 3.57,5.11 0.12,8.38c-8.81,8.35 -17.28,17.05 -25.79,25.71c-1.31,1.34 -2.12,3.18 -3.16,5.15c-21.15,-20.04 -38.44,-43.4 -52.99,-68.86c-0.58,-1 -1.17,-2 -1.82,-3.33z" fill="#242424" id="svg_27" opacity="1" transform="matrix(1 0 0 1 0 0)"/>
  <path d="m96.29,545.23c1.44,-1.41 3.22,-2.32 4.58,-3.66c9.92,-9.82 19.76,-19.71 29.13,-29.09c20.73,20.74 41.15,41.16 61.15,61.16c-7.18,7.57 -15.14,15.97 -23.46,24.5c-24.08,-12.27 -45.21,-28.26 -64.8,-46.39c-2.19,-2.03 -4.31,-4.14 -6.6,-6.52z" fill="#242424" id="svg_28" opacity="1"/>
  <path d="m11,393.4c1.16,0.23 2.48,0.65 3.36,1.53c16.46,16.38 32.88,32.82 49.29,49.26c0.46,0.45 0.78,1.03 1.47,1.97c-8,8.17 -15.97,16.31 -24.09,24.76c-13.92,-24.03 -23.66,-49.93 -30.03,-77.52z" fill="#252525" id="svg_29" opacity="1"/>
  <path d="m171.15,600.42c0.08,-1.05 0.13,-2.04 0.65,-2.56c7.51,-7.51 15.09,-14.96 22.9,-22.67c13.53,13.54 26.98,26.92 40.34,40.39c4.08,4.11 7.94,8.45 11.93,13.03c-15.29,-4.41 -30.81,-8.64 -45.88,-14.09c-10.24,-3.71 -19.85,-9.15 -29.94,-14.1z" fill="#252525" id="svg_30" opacity="1"/>
  <path d="m381.41,632.09c-1.5,-1.66 -2.37,-3.47 -3.71,-4.82c-16.55,-16.65 -33.15,-33.24 -49.78,-49.79c-1.29,-1.29 -2.96,-2.19 -3.48,-2.56c21.06,-21.15 41.4,-41.59 62.19,-62.47c0.67,0.6 2.02,1.73 3.26,2.97c17.79,17.76 35.56,35.53 53.33,53.31c4.69,4.69 4.72,4.8 0.07,9.46c-14.93,14.96 -29.91,29.88 -44.8,44.89c-1.44,1.45 -2.34,3.44 -3.49,5.54c-4.39,1.42 -8.79,2.48 -13.59,3.47z" fill="#232323" id="svg_31" opacity="1"/>
  <path d="m631.21,392.68c-2.15,1.42 -4.43,2.16 -5.95,3.66c-14.69,14.51 -29.26,29.12 -43.81,43.75c-1.28,1.29 -2.17,2.97 -2.77,3.79c-21.38,-21.38 -42,-42 -62.91,-62.92c0.36,-0.39 1.42,-1.63 2.57,-2.78c17.64,-17.66 35.29,-35.31 52.95,-52.96c5.22,-5.21 5.23,-5.2 10.53,0.1c15.77,15.77 31.52,31.55 47.33,47.28c1.37,1.36 3.13,2.34 5.09,3.57c-0.68,5.45 -1.75,10.82 -3.03,16.51z" fill="#232323" id="svg_32" opacity="1"/>
  <path d="m475.38,598.01c-7.3,-7.07 -14.19,-14.26 -21.24,-21.3c-2.17,-2.17 -2.64,-3.8 -0.23,-6.19c19.23,-19.09 38.36,-38.28 57.54,-57.42c0.34,-0.35 0.81,-0.56 1.68,-1.14c1.23,1.12 2.58,2.27 3.82,3.51c8.36,8.33 16.69,16.7 25.07,25.01c1.27,1.26 2.78,2.27 4.52,3.43c-20.63,21.66 -44.53,39.42 -71.16,54.1z" fill="#242424" id="svg_33" opacity="1"/>
  <path d="m547.24,543.73c-1.41,-1.44 -2.32,-3.23 -3.66,-4.59c-9.48,-9.57 -19.05,-19.05 -28.87,-28.84c1.21,-1.41 2.08,-2.57 3.09,-3.59c18.25,-18.27 36.58,-36.46 54.71,-54.85c3.1,-3.15 5.05,-3.17 8.02,0.05c6.32,6.85 12.97,13.38 19.62,20.4c-12.35,24.24 -28.47,45.49 -46.74,65.17c-1.93,2.07 -3.91,4.08 -6.17,6.25z" fill="#242424" id="svg_34" opacity="1"/>
  <path d="m397.35,628.64c0.57,-1.34 1.37,-2.8 2.5,-3.94c15.12,-15.19 30.36,-30.26 45.38,-45.56c3.11,-3.16 5.12,-3.74 8.37,-0.17c6.16,6.74 12.76,13.07 19.32,19.89c-18.3,11.09 -38.06,18.81 -58.37,25.18c-5.54,1.74 -11.21,3.09 -17.2,4.6z" fill="#252525" id="svg_35" opacity="1"/>
  <path d="m602.46,468.86c-7.55,-7.76 -14.81,-15.71 -22.07,-23.67c-0.44,0.31 -0.88,0.62 -1.32,0.92c0.55,-0.77 1,-1.65 1.66,-2.31c15.73,-15.77 31.48,-31.52 47.25,-47.25c0.57,-0.58 1.31,-0.99 2.29,-1.53c-4.36,21.79 -12.34,42.46 -21.92,62.56c-1.78,3.74 -3.74,7.39 -5.89,11.28z" fill="#252525" id="svg_36" opacity="1"/>
  <path d="m241.98,493.88c2.49,3.02 4.79,6.23 7.53,9.01c2.19,2.22 4.91,3.92 7.58,5.98c-2.11,2.39 -3.02,3.53 -4.04,4.56c-18.14,18.16 -36.36,36.22 -54.36,54.52c-3.26,3.31 -5.16,3.27 -8.39,-0.02c-18,-18.29 -36.23,-36.36 -54.37,-54.51c-0.93,-0.94 -1.8,-1.94 -3.11,-3.35c1.23,-1.36 2.34,-2.72 3.58,-3.95c14.01,-14.04 28.04,-28.04 42.04,-42.09c1.27,-1.27 2.3,-2.78 3.87,-4.58c1.19,-0.43 1.95,-0.47 3.18,-0.45c6.78,-0.01 13.1,-0.06 19.83,-0.04c1.22,-0.05 2.04,-0.18 3.15,-0.21c0.71,0.14 1.12,0.19 1.89,0.42c31.65,0.22 62.95,0.26 94.24,0.25c1.24,0 2.48,-0.61 3.96,-1.01c0.63,-0.37 1.01,-0.65 1.35,-0.78c-0.05,0.16 0.17,0.41 0.17,0.41c0,0 0.33,-0.03 0.64,0.33c7.28,0.43 14.27,0.51 21.66,0.67c1.22,-0.1 2.04,-0.28 3.29,-0.32c33.01,0.18 65.59,0.24 98.16,0.27c0.65,0 1.29,-0.3 2.33,-0.31c1.22,0.19 2.05,0.23 3.34,0.32c7.1,-0.02 13.74,-0.08 20.79,-0.08c0.93,-0.1 1.45,-0.27 2,-0.28c0.04,0.17 -0.26,0.31 -0.26,0.31c1.07,1.6 1.93,3.43 3.26,4.78c13.96,14.06 27.96,28.07 42.04,42.01c1.27,1.26 3.17,1.88 4.96,2.9c-2.32,2.62 -3.23,3.77 -4.26,4.8c-17.88,17.9 -35.76,35.8 -53.67,53.68c-4.85,4.84 -4.92,4.81 -9.81,-0.08c-17.54,-17.54 -35.08,-35.07 -52.62,-52.61c-4.92,-4.92 -4.85,-4.86 0.14,-10.04c3.07,-3.19 5.88,-6.63 8.68,-10.41c-0.13,-0.45 0,-0.71 0.44,-0.61c1.61,0.17 2.79,0.24 4.42,0.34c11.07,0.03 21.68,0.03 32.32,0.03c0,-8.93 0,-17.29 0,-25.96c-3.53,0.17 -6.67,0.32 -10.2,0.39c-1.2,-0.08 -2,-0.07 -3.26,-0.15c-26.44,-0.02 -52.42,0.02 -78.79,0c-1.21,0.02 -2.02,0.12 -3.27,0.11c-14.38,0.03 -28.3,0.16 -42.58,0.14c-0.89,-0.15 -1.41,-0.14 -2.38,-0.23c-26.44,-0.06 -52.43,-0.02 -78.81,-0.06c-1.2,0.07 -1.99,0.21 -3.23,0.22c-4.17,-0.13 -7.9,-0.13 -11.65,-0.13c0,8.79 0,17.03 0,25.6c11.9,0 23.49,0 35.46,0.11c1.18,0.11 1.97,0.1 2.76,0.1z" fill="#242424" id="svg_37" opacity="1"/>
  <path d="m359.35,229.19c1.44,1.99 2.64,4.22 4.36,5.94c26.41,26.52 52.88,52.97 79.38,79.4c1.29,1.29 2.96,2.18 4.56,3.33c-1.36,1.86 -1.91,2.86 -2.68,3.63c-9.03,9.09 -18.09,18.15 -27.18,27.17c-0.91,0.91 -2.1,1.53 -3.74,2.04c-2.48,-3.7 -4.38,-7.14 -6.39,-10.85c-0.49,-0.66 -0.88,-1.07 -0.91,-1.66c4.3,-5.21 4.17,-6.19 -0.82,-9.57c-1.67,1.81 -3.31,3.6 -5.21,5.36c-0.42,-0.1 -0.58,-0.17 -0.72,-0.63c1.29,-5.68 2.75,-10.94 3.75,-16.28c0.36,-1.92 0.2,-4.46 -0.81,-6.01c-1.77,-2.71 -4.56,-2.63 -7.48,-1.14c-1.06,0.54 -2.79,0.45 -3.96,0c-4.64,-1.8 -8.69,-1.37 -12.27,2.31c-1.63,1.67 -3.47,3.14 -6.23,5.6c0,-3.12 -0.18,-4.76 0.04,-6.34c0.53,-3.93 -1.51,-6.79 -4.66,-7.93c-2.07,-0.74 -6.31,-0.21 -7.08,1.16c-1.72,3.04 -3.72,8.44 -2.29,10.25c4.31,5.43 4.22,9.8 0.22,14.85c-0.34,0.42 -0.12,1.29 -0.56,2.02c-1.22,0.07 -2.04,0.08 -3.02,0.07c-0.15,-0.01 -0.47,-0.01 -0.56,-0.04c-0.1,-0.02 -0.06,-0.22 -0.08,-0.63c-0.32,-5.51 -1.38,-10.71 -0.71,-15.68c0.56,-4.17 -1.5,-5.54 -4.26,-6.41c-3.36,-1.05 -5.19,1.1 -6.03,4.24c-1.63,6.13 -3.32,12.25 -5.37,18.42c-1.15,-0.04 -1.92,-0.14 -2.68,-0.65c0.52,-3.67 0.68,-7.03 1.63,-10.15c1.53,-5.02 -0.39,-8.68 -4.39,-10.98c-2.07,-1.19 -5.09,-0.73 -7.79,-1.47c-0.12,-2.37 -0.12,-4.3 -0.12,-6.28c-3.18,0 -5.74,0 -8.36,0c-0.14,2.44 -0.26,4.59 -0.77,6.74c-3.79,-0.58 -5.03,1.35 -5.81,4.29c-1.65,6.17 -3.54,12.28 -5.67,18.47c-0.82,0.02 -1.29,-0.01 -1.94,-0.26c-0.71,-0.34 -1.25,-0.48 -1.77,-1.02c1.22,-5.19 2.71,-9.94 3.49,-14.8c0.27,-1.72 -0.69,-4.41 -2.02,-5.38c-1.33,-0.96 -3.85,-0.55 -5.79,-0.3c-0.96,0.12 -1.8,1.23 -2.62,1.83c-6.14,-4.37 -9.9,-4.56 -14.25,1.16c-4.32,5.69 -7.23,12.43 -11.04,18.8c-0.47,0.17 -0.65,0.25 -1.29,0.23c-7.46,0.25 -14.46,0.6 -21.71,0.86c-0.42,-0.12 -0.59,-0.16 -0.76,-0.65c-0.06,-9.07 -0.51,-17.59 4.5,-25.48c4.81,-7.58 11.3,-11.7 18.92,-9.78c-0.59,2.92 -1.42,5.87 -1.71,8.87c-0.15,1.55 0.17,3.74 1.17,4.63c1,0.89 3.83,1.26 4.61,0.53c1.89,-1.79 3.91,-4.18 4.37,-6.61c2.04,-10.54 -9.73,-17.01 -18.21,-15.15c-18.37,4 -29.61,23.43 -24.11,41.8c0.61,2.06 1.07,4.16 1.59,6.44c-0.01,0.2 0.04,0.6 -0.2,0.84c-2.47,4.03 -4.71,7.82 -7.13,11.65c-0.17,0.04 -0.53,0.1 -0.53,0.1c-9.98,-9.77 -20.01,-19.48 -29.83,-29.4c-0.77,-0.77 -0.38,-3.15 0.12,-4.56c0.39,-1.13 1.76,-1.93 2.71,-2.87c25.66,-25.66 51.33,-51.32 76.96,-77c1.39,-1.39 2.5,-3.04 4.1,-4.95c0.57,-0.39 0.78,-0.42 1.35,-0.41c1.06,-0.01 1.75,-0.06 2.91,-0.07c24.08,0.01 47.7,-0.01 71.62,0.07c0.47,-0.23 0.64,-0.56 0.92,-1.1c0.09,-0.19 0.24,-0.61 0.24,-0.61m-21.14,62.55c5.68,-2.24 11.72,-3.86 16.96,-6.87c6.66,-3.82 6.47,-9.22 0.28,-13.8c-1.06,-0.79 -2.24,-1.44 -3.43,-2.02c-13.83,-6.69 -28.53,-7.84 -43.34,-5.43c-7.38,1.2 -14.81,3.86 -21.48,7.29c-7.28,3.73 -7.03,9.84 -0.13,14.23c3.05,1.93 6.45,3.49 9.88,4.62c13.25,4.39 26.8,4.34 41.26,1.98m-16.77,-52.25c-1.46,0.08 -2.91,0.15 -4.35,0.22c0,4.94 0,9.51 0,14.12c2.78,0 5.21,0 8.16,0c0,-4.13 0.16,-8.1 -0.13,-12.03c-0.06,-0.83 -1.81,-1.54 -3.68,-2.31z" fill="#232323" id="svg_38" opacity="1"/>
  <path d="m228.96,349.95c2.24,-3.79 4.48,-7.58 7.29,-11.58c1.72,0.66 2.96,1.42 3.99,2.41c9.46,9.16 22.2,8.56 30.76,-1.49c0.94,-1.1 1.97,-2.11 3.09,-2.88c1.67,1.77 3.2,3.24 4.96,5.02c5.33,2.53 7.67,1.81 12.27,-3.19c2.1,1.33 3.88,2.57 5.91,4.08c3.99,1.22 6.7,-0.28 9.09,-3.29c1.4,0.71 2.48,1.4 3.74,2.39c2.51,2.25 4.61,1.77 5.7,-0.82c1.11,-2.66 1.57,-5.59 2.63,-8.5c0.73,-0.2 1.15,-0.3 1.98,-0.29c1.83,0.1 3.26,0.1 4.6,0.12c-0.07,0.03 -0.05,0.18 -0.06,0.57c1.29,2.8 2.59,5.23 4.08,7.95c6.42,4.33 12.93,0.6 15.39,-8.3c0.69,-0.01 1.09,0.04 1.44,0.46c1.3,2.76 2.63,5.16 4.16,7.84c1.83,2.49 4.08,3.32 6.06,1.34c2.94,-2.93 5.4,-6.34 8.41,-9.64c1.08,-0.23 1.81,-0.36 2.94,-0.38c1.82,0.05 3.22,0 4.84,0.08c0.21,0.12 0.67,0.31 0.65,0.69c0.47,4.89 2.96,7.81 7.37,9.69c4.08,-0.95 7.92,-2.2 12,-3.24c1.04,0.83 1.84,1.46 2.84,2.4c2.53,0.39 4.88,0.73 7.16,0.47c1.88,-0.21 3.69,-1.14 5.52,-1.75c1.9,3.45 3.8,6.89 5.93,10.61c0.13,1.01 0.04,1.74 -0.06,2.66c0,0.2 -0.35,0.32 -0.66,0.39c-4.92,4.61 -9.59,9.1 -14.14,13.7c-13.08,13.2 -26.11,26.45 -39.57,39.87c-10.38,0.28 -20.35,0.47 -30.32,0.45c-14.96,-0.03 -29.92,-0.19 -44.88,-0.63c-16.67,-17.09 -33.37,-33.84 -50,-50.67c-1.93,-1.95 -3.42,-4.35 -5.11,-6.54z" fill="#FEFEFE" id="svg_39" opacity="1" transform="matrix(1 0 0 1 0 0)"/>
  <path d="m200.75,310.75c-1.97,2.27 -3.69,4.29 -5.06,5.89c-21.04,-21.04 -41.46,-41.47 -61.37,-61.37c19.92,-19.92 40.35,-40.35 60.31,-60.31c19.55,19.54 39.97,39.95 60.96,60.95c-17.74,17.73 -36.16,36.16 -54.84,54.84z" fill="#232323" id="svg_40" opacity="1"/>
  <path d="m471.25,87.75c12.27,12.27 24.26,24.32 36.34,36.28c2.25,2.23 3.1,3.9 0.41,6.56c-19.05,18.89 -37.99,37.9 -56.97,56.86c-0.56,0.56 -1.27,0.97 -2.16,1.64c-1.34,-1.24 -2.57,-2.31 -3.73,-3.46c-17.92,-17.9 -35.75,-35.89 -53.8,-53.66c-3.31,-3.26 -3.79,-5.24 -0.21,-8.76c18.21,-17.85 36.14,-35.98 54.18,-54c1.05,-1.05 2.16,-2.03 3.8,-3.56c7.37,7.35 14.63,14.6 22.14,22.1z" fill="#232323" id="svg_41" opacity="1"/>
  <path d="m174.25,86.25c5.9,-5.91 11.58,-11.54 17.21,-17.23c1.7,-1.73 3.25,-2.83 5.44,-0.64c19.64,19.7 39.32,39.37 59.37,59.44c-1.22,1.37 -2.22,2.61 -3.35,3.74c-18.13,18.16 -36.35,36.24 -54.37,54.51c-3.04,3.08 -4.89,3.26 -8.03,0.08c-18.13,-18.4 -36.47,-36.59 -54.72,-54.87c-0.93,-0.92 -1.76,-1.94 -3.17,-3.5c13.86,-13.83 27.61,-27.56 41.62,-41.53z" fill="#232323" id="svg_42" opacity="1" transform="matrix(1 0 0 1 0 0)"/>
  <path d="m148.25,236.25c-5.69,5.84 -11.13,11.43 -16.82,17.28c-1.78,-1.61 -3.03,-2.65 -4.17,-3.79c-18.04,-18.02 -36,-36.12 -54.17,-54.01c-3.24,-3.2 -3.43,-5.1 -0.07,-8.4c18.3,-17.99 36.36,-36.23 54.52,-54.36c1.03,-1.03 2.18,-1.95 3.51,-3.13c1.41,1.3 2.65,2.37 3.8,3.52c17.92,17.9 35.72,35.92 53.82,53.64c3.73,3.65 3.4,5.68 -0.15,9.13c-13.5,13.12 -26.71,26.55 -40.27,40.12z" fill="#232323" id="svg_43" opacity="1"/>
  <path d="m497.25,269.25c-14.86,14.86 -29.51,29.44 -44.06,44.12c-2.33,2.35 -4.03,3.42 -6.92,0.5c-18.87,-19.07 -37.89,-37.99 -56.85,-56.98c-0.46,-0.46 -0.81,-1.03 -1.39,-1.77c0.7,-0.92 1.28,-1.91 2.06,-2.69c18.61,-18.63 37.26,-37.22 55.81,-55.91c2.45,-2.47 4.16,-3.09 6.93,-0.29c18.76,18.95 37.66,37.76 56.5,56.63c0.57,0.57 1.02,1.26 2.14,2.66c-4.7,4.53 -9.33,9 -14.22,13.73z" fill="#232323" id="svg_44" opacity="1"/>
  <path d="m79.25,308.25c17.2,-17.22 34.16,-34.18 51.31,-51.35c1.12,0.8 2.13,1.33 2.9,2.1c18.76,18.72 37.46,37.49 56.27,56.16c2.39,2.38 2.67,4.04 0.13,6.56c-19.05,18.9 -37.99,37.9 -56.97,56.87c-0.46,0.45 -1.03,0.8 -1.88,1.45c-1.12,-0.95 -2.28,-1.83 -3.3,-2.84c-18.27,-18.25 -36.47,-36.59 -54.87,-54.72c-3.18,-3.14 -3.26,-5.25 0.12,-8.01c2.18,-1.78 4.04,-3.97 6.29,-6.22z" fill="#232323" id="svg_45" opacity="1"/>
  <path d="m502.75,243.25c-16.16,-16.16 -32.03,-32.11 -48.01,-47.94c-2.58,-2.55 -3.4,-4.3 -0.38,-7.29c18.97,-18.74 37.77,-37.65 56.63,-56.5c0.47,-0.46 1.02,-0.84 1.85,-1.53c1,0.78 2.08,1.46 2.97,2.35c18.64,18.6 37.22,37.25 55.91,55.8c2.38,2.37 2.7,4.04 0.15,6.57c-19.05,18.89 -37.99,37.9 -56.97,56.86c-0.46,0.46 -1.03,0.81 -2.14,1.67c-3.25,-3.25 -6.51,-6.49 -10.01,-9.99z" fill="#232323" id="svg_46" opacity="1"/>
  <path d="m452.35,319.52c0.48,-1.59 0.84,-3.13 1.79,-4.08c19.04,-19.14 38.15,-38.21 57.25,-57.29c0.35,-0.34 0.8,-0.58 1.68,-1.2c1.12,1 2.36,2 3.49,3.13c18.15,18.13 36.24,36.34 54.51,54.37c3.07,3.03 3.27,4.88 0.08,8.03c-18.39,18.12 -36.59,36.46 -54.86,54.72c-0.93,0.93 -1.95,1.76 -3.05,2.76c-20.33,-20.12 -40.53,-40.12 -60.89,-60.44z" fill="#232323" id="svg_47" opacity="1"/>
  <path d="m325.09,188.04c1.59,-1.13 3.37,-2.06 4.73,-3.41c17.22,-17.13 34.46,-34.25 51.49,-51.57c3.24,-3.31 5.14,-3.29 8.39,0c17.97,18.26 36.17,36.31 54.28,54.43c1.03,1.04 1.96,2.17 3.18,3.53c-1.27,1.38 -2.31,2.62 -3.46,3.77c-17.99,18.01 -36.09,35.91 -53.91,54.09c-3.52,3.58 -5.54,3.15 -8.76,-0.2c-6.78,-7.07 -13.97,-13.75 -21.39,-20.93c-0.48,-0.82 -0.56,-1.28 -0.58,-2.21c0.06,-4.85 0.06,-9.24 0.06,-13.74c-5.18,0 -9.88,0 -14.75,-0.21c-0.84,-0.22 -1.52,-0.24 -2.27,-0.63c-5.68,-5.89 -11.28,-11.42 -16.97,-17.38c-0.24,-2.23 -0.4,-4.02 -0.37,-5.84c0.18,-0.04 0.33,0.3 0.33,0.3z" fill="#242424" id="svg_48" opacity="1" transform="matrix(1 0 0 1 0 0)"/>
  <path d="m283.31,230.86c-0.22,0.03 -0.43,0.06 -0.96,0.11c-1.58,0.78 -3.05,1.31 -4.06,2.3c-6.62,6.53 -13.15,13.15 -19.92,19.96c-1.32,-1.06 -2.39,-1.78 -3.29,-2.68c-18.49,-18.45 -36.93,-36.96 -55.46,-55.37c-2.37,-2.35 -3.38,-4.05 -0.48,-6.92c19.16,-18.96 38.18,-38.06 57.25,-57.11c0.35,-0.35 0.81,-0.58 1.7,-1.21c1.23,1.11 2.58,2.24 3.82,3.48c16.37,16.34 32.71,32.71 49.09,49.04c1.27,1.27 2.77,2.31 4.61,3.73c0.51,0.45 0.58,0.62 0.59,1.21c0.01,2.16 0.08,3.89 0.08,5.98c-0.04,1.1 0,1.83 -0.3,2.69c-4.87,5 -9.41,9.87 -14,14.98c-0.05,0.23 -0.08,0.69 0.04,0.75c0.12,0.06 0.06,0.32 -0.28,0.19c-1.07,-0.14 -1.8,-0.15 -2.99,-0.29c-5.49,-0.13 -10.51,-0.13 -15.75,-0.13c0,5.6 0,10.52 -0.09,15.81c0.07,1.42 0.23,2.45 0.4,3.48z" fill="#232323" id="svg_49" opacity="1"/>
  <path d="m316.05,184.13c-5.19,-5.39 -10.31,-10.83 -15.58,-16.13c-12.32,-12.41 -24.68,-24.78 -37.11,-37.08c-2.32,-2.28 -2.93,-3.95 -0.31,-6.55c19.04,-18.88 37.96,-37.88 56.93,-56.82c0.56,-0.56 1.27,-0.97 2.08,-1.58c1.14,0.99 2.17,1.79 3.09,2.7c18.38,18.36 36.71,36.77 55.16,55.06c2.63,2.6 3.25,4.36 0.28,7.29c-17.42,17.19 -34.67,34.56 -52,51.85c-0.8,0.8 -1.83,1.37 -3.31,1.72c-3.44,-0.37 -6.33,-0.42 -9.23,-0.46m-8.08,-32.38c-0.54,1.21 -1.29,2.37 -1.58,3.64c-1.45,6.28 -0.41,11.93 4.77,16.23c4.95,4.1 10.55,4.77 16.32,2.17c6,-2.7 9.05,-8.25 8.68,-14.95c-0.38,-6.74 -4.14,-11.07 -10.14,-13.5c-6.03,-2.44 -12.26,-0.26 -18.05,6.41z" fill="#242424" id="svg_50" opacity="1"/>
  <path d="m482.01,416.07c0.84,-1.37 1.47,-2.95 2.57,-4.07c8.05,-8.19 16.31,-16.19 24.28,-24.46c2.73,-2.83 4.52,-2.8 7.29,0c18.39,18.59 36.91,37.03 55.42,55.49c1.93,1.93 3.42,3.54 0.77,6.17c-19.37,19.25 -38.66,38.58 -58,57.86c-0.32,0.33 -0.83,0.47 -1.54,0.86c-1.07,-0.95 -2.21,-1.85 -3.24,-2.88c-13.56,-13.53 -27.11,-27.05 -40.6,-40.64c-1.22,-1.24 -2,-2.93 -2.56,-4.89c23.15,-2.51 41.05,-23.22 36.75,-43.44c-6.94,0 -14.04,0 -21.14,0z" fill="#232323" id="svg_51" opacity="1"/>
  <path d="m413.74,353.74c1.71,-0.87 3.57,-1.65 4.91,-2.97c8.91,-8.75 17.7,-17.63 26.54,-26.45c1.15,-1.14 2.39,-2.2 3.78,-3.48c1.35,1.2 2.49,2.13 3.52,3.16c18.15,18.12 36.2,36.34 54.49,54.32c3.34,3.29 3.25,5.24 -0.06,8.4c-8.45,8.03 -16.59,16.39 -24.77,24.69c-1.21,1.23 -1.98,2.91 -2.82,4.87c0.13,0.49 -0.06,0.71 -0.46,0.5c-1.3,-0.25 -2.2,-0.29 -3.54,-0.35c-18,0 -35.54,0.03 -53.59,-0.01c-1.04,0.29 -1.58,0.65 -2.31,0.81c-0.26,-0.36 -0.34,-0.52 -0.43,-1.07c-1.95,-2.75 -3.9,-5.1 -5.81,-7.48c-2.1,-2.61 -4.17,-5.25 -6.14,-8.19c2.42,-5.36 6.12,-10.25 6.69,-15.48c1.04,-9.54 0.22,-19.28 0.23,-29.36c-0.2,-0.93 -0.44,-1.44 -0.68,-1.95c0,0 0.35,-0.12 0.45,0.04z" fill="#232323" id="svg_52" opacity="1"/>
  <path d="m177.01,459.34c-0.94,1.66 -1.57,3.62 -2.87,4.93c-13.35,13.5 -26.83,26.86 -40.19,40.35c-2.27,2.29 -3.94,3 -6.56,0.35c-18.88,-19.04 -37.88,-37.96 -56.82,-56.93c-0.56,-0.56 -0.98,-1.27 -1.62,-2.12c1.1,-1.24 2.03,-2.37 3.06,-3.41c18.12,-18.14 36.34,-36.19 54.32,-54.48c3.28,-3.33 5.24,-3.29 8.39,0.05c7.56,7.98 15.49,15.59 23.23,23.4c1.14,1.16 2,2.58 2.57,4.37c-7.67,0.49 -14.91,0.49 -23.01,0.49c0.85,5.36 1.02,9.91 2.33,14.1c5.65,18.16 18.62,27.19 37.17,28.9z" fill="#232323" id="svg_53" opacity="1"/>
  <path d="m165.04,416.25c-1.17,-1.73 -2.09,-3.71 -3.54,-5.17c-9.45,-9.56 -19.02,-19.02 -28.81,-28.76c1.25,-1.45 2.12,-2.61 3.14,-3.62c18.22,-18.25 36.52,-36.41 54.62,-54.77c3.03,-3.06 4.93,-3.33 8.02,-0.09c8.15,8.55 16.6,16.8 25.02,25.08c1.05,1.03 2.6,1.55 4.29,2.59c0.33,1.36 0.29,2.43 0.19,3.97c-0.07,9.47 -0.09,18.47 -0.09,27.47c0,7.22 2.64,13.28 8.12,18.41c0.59,0.64 1.08,1 1.18,1.45c-4.66,4.52 -8.94,8.96 -13.62,13.45c-1.2,0.11 -1.99,0.15 -3.24,0.17c-17.67,-0.01 -34.89,0 -52.48,-0.13c-1.18,-0.12 -1.99,-0.08 -2.8,-0.05z" fill="#232323" id="svg_54" opacity="1"/>
  <path d="m370.16,493.73c2.87,3.51 5.55,7.21 8.65,10.5c5.07,5.38 5.18,5.27 0.05,10.41c-17.55,17.55 -35.13,35.08 -52.61,52.7c-1.26,1.27 -1.88,3.19 -2.89,4.98c-2.64,-2.34 -3.79,-3.26 -4.82,-4.29c-18.15,-18.12 -36.21,-36.34 -54.49,-54.34c-3.31,-3.25 -3.4,-5.26 0,-8.41c3.59,-3.31 6.54,-7.31 9.65,-11.5c-0.12,-0.48 0.06,-0.68 0.45,-0.48c1.28,0.25 2.15,0.29 3.48,0.39c30.04,0.01 59.63,-0.03 89.65,0c1.29,-0.09 2.14,-0.24 3.06,-0.26c0.05,0.13 -0.18,0.3 -0.18,0.3z" fill="#232323" id="svg_55" opacity="1"/>
  <path d="m177.4,459.24c-18.94,-1.61 -31.91,-10.64 -37.56,-28.8c-1.31,-4.19 -1.48,-8.74 -2.33,-14.1c8.1,0 15.34,0 23.03,-0.14c1.15,-0.01 1.84,0.13 3.01,0.66c9.09,9.05 17.64,17.77 26.39,26.29c2.13,2.06 2.54,3.62 0.1,5.79c-3.24,3.3 -6.2,6.49 -9.17,9.68c-1.03,0.17 -2.06,0.34 -3.47,0.62z" fill="#FCFCFC" id="svg_56" opacity="1"/>
  <path d="m481.69,416.2c7.42,-0.13 14.52,-0.13 21.46,-0.13c4.3,20.22 -13.6,40.93 -36.75,43.1c-1.47,-0.03 -2.53,-0.19 -3.98,-0.28c-0.39,0.06 -0.09,-0.08 -0.18,-0.57c-3.81,-4.38 -7.53,-8.28 -12.67,-13.68c10.13,-9.43 19.92,-18.54 29.7,-27.65c0,0 0.19,-0.22 0.12,-0.34c0.61,-0.18 1.29,-0.25 2.3,-0.45z" fill="#FCFCFC" id="svg_57" opacity="1"/>
  <path d="m346.08,468.09c25.97,-0.05 51.95,-0.09 78.26,0.23c-7.64,8.57 -15.62,16.76 -23.59,24.95c0,0 -0.13,0.26 -0.02,0.35c-0.61,0.12 -1.33,0.15 -2.84,0.17c-8.83,0.07 -16.86,0.15 -24.89,0.23c-0.71,-0.13 -1.42,-0.26 -2.48,-0.34c-0.36,0.05 -0.13,-0.12 -0.28,-0.55c-8.16,-8.63 -16.16,-16.83 -24.16,-25.04z" fill="#FEFEFE" id="svg_58" opacity="1"/>
  <path d="m219.04,468.05c25.98,-0.03 51.97,-0.07 78.24,0.27c-7.64,8.51 -15.58,16.64 -23.52,24.78c0,0 -0.18,0.2 -0.11,0.31c-0.61,0.21 -1.3,0.3 -2.77,0.38c-8.82,0.07 -16.85,0.15 -24.88,0.23c-0.7,-0.12 -1.41,-0.25 -2.54,-0.8c-8.43,-8.67 -16.43,-16.92 -24.42,-25.17z" fill="#FEFEFE" id="svg_59" opacity="1"/>
  <path d="m237.56,402.71c-0.48,-0.35 -0.97,-0.71 -1.2,-1.36c6.86,-6.42 13.45,-12.54 20.44,-19.03c-6.5,-6.4 -12.22,-12.15 -18.08,-17.76c-3.45,-3.3 -7.12,-6.37 -10.69,-9.54c0.04,-1.08 0.08,-2.15 0.03,-3.63c-0.1,-0.39 0.08,-0.84 0.14,-1.07c0.05,-0.23 0.41,-0.29 0.58,-0.33c1.87,2.15 3.36,4.55 5.29,6.5c16.63,16.83 33.33,33.58 49.58,50.74c-1.54,0.44 -2.66,0.48 -3.76,0.18c-4.34,-5.03 -8.64,-9.74 -13.05,-14.36c-2.79,-2.94 -5.74,-5.73 -9.02,-8.97c-5.29,5.46 -10.07,10.28 -14.7,15.24c-1.28,1.37 -2.13,3.15 -3.45,4.74c-0.76,-0.31 -1.22,-0.61 -1.76,-1.05c-0.06,-0.15 -0.35,-0.3 -0.35,-0.3z" fill="#ABABAB" id="svg_60" opacity="1"/>
  <path d="m373.03,494.36c8,-0.42 16.03,-0.5 24.52,-0.46c-3.44,4.72 -7.32,9.31 -11.83,14.64c-4.56,-4.99 -8.61,-9.41 -12.69,-14.18z" fill="#232323" id="svg_61" opacity="1"/>
  <path d="m246.03,494.37c8,-0.43 16.03,-0.51 24.52,-0.47c-3.23,4.24 -6.83,8.44 -10.68,12.4c-0.49,0.5 -2.7,0.19 -3.38,-0.48c-3.61,-3.58 -6.98,-7.38 -10.46,-11.45z" fill="#232323" id="svg_62" opacity="1"/>
  <path d="m190.31,448.82c2.17,-2.05 1.76,-3.61 -0.37,-5.67c-8.75,-8.52 -17.3,-17.24 -26.06,-26.17c0.09,-0.34 0.31,-0.4 0.85,-0.59c1.12,-0.17 1.93,-0.21 3.1,0.23c8.99,9.5 17.62,18.53 26.31,27.62c1.91,-1.61 3.29,-2.78 4.73,-3.5c0.08,1.03 0.09,1.62 -0.07,2.5c-1.95,1.88 -2.15,3.27 -0.25,5.13c3.35,3.29 6.43,6.84 9.62,10.29c-0.81,0.12 -1.63,0.25 -3,0.01c-3.45,-3.4 -6.29,-6.51 -9.33,-9.41c-0.55,-0.53 -1.91,-0.21 -3.33,-0.29c-1.03,-0.05 -1.61,-0.1 -2.2,-0.15z" fill="#A4A4A4" id="svg_63" opacity="1"/>
  <path d="m218.64,467.98c8.39,8.32 16.39,16.57 24.48,25.11c-0.1,0.39 -0.3,0.48 -0.82,0.68c-1.11,0.11 -1.9,0.12 -3.09,-0.32c-2.07,-2.4 -3.67,-4.42 -5.44,-6.3c-5.94,-6.3 -11.94,-12.55 -17.92,-18.82c0.8,-0.14 1.59,-0.28 2.79,-0.35z" fill="#ABABAB" id="svg_64" opacity="1"/>
  <path d="m359,226c0.08,0.47 0.16,0.93 0.28,1.64c-0.05,0.52 -0.09,0.82 0.01,1.34c0.06,0.21 -0.09,0.63 -0.36,0.82c-0.27,0.19 -0.62,0.18 -0.78,-0.13c-5.49,-6.02 -10.81,-11.74 -16.16,-17.68c-0.02,-0.24 0.17,-0.66 0.17,-0.66c0.69,0.02 1.37,0.04 2.43,0.56c5.05,5.04 9.73,9.57 14.41,14.11z" fill="#A4A4A4" id="svg_65" opacity="1"/>
  <path d="m190.04,448.94c0.86,-0.07 1.44,-0.02 2.35,0.34c-2.24,3.43 -4.81,6.55 -7.37,9.67c-0.76,0.03 -1.52,0.07 -2.66,0.17c-0.56,-0.02 -0.75,-0.12 -1.21,-0.36c2.69,-3.33 5.65,-6.52 8.89,-9.82z" fill="#B8B8B8" id="svg_66" opacity="1"/>
  <path d="m316.04,184.33c2.91,-0.16 5.8,-0.11 8.91,0.31c0.13,1.13 0.05,1.89 0.06,3.03c0.08,0.37 -0.07,0.03 -0.51,0.06c-0.82,0.38 -1.19,0.73 -1.88,1.16c-1.46,-0.57 -2.6,-1.22 -3.85,-2.15c-0.95,-0.79 -1.8,-1.3 -2.64,-1.81c0,0 -0.1,-0.39 -0.09,-0.6z" fill="#FCFCFC" id="svg_67" opacity="1"/>
  <path d="m316.04,185.19c0.93,0.25 1.78,0.76 2.41,1.54c-0.88,0.27 -1.53,0.25 -2.19,0.24c-0.07,-0.16 -0.14,-0.33 -0.31,-0.74c-0.07,-0.42 -0.03,-0.6 0.09,-1.04z" fill="#ABABAB" id="svg_68" opacity="1"/>
  <path d="m419.02,416.55c0.07,0.16 0.15,0.32 0.48,0.96c9.7,9.41 19.16,18.36 28.64,27.34c-4.92,5.44 -8.65,9.56 -12.38,13.68c-0.64,0.16 -1.28,0.46 -1.93,0.46c-32.57,-0.03 -65.15,-0.09 -98.22,-0.6c-4.24,-4.38 -7.98,-8.3 -12.81,-13.36c1.82,-1.2 3.58,-1.99 4.84,-3.26c8.16,-8.22 16.22,-16.54 24.7,-24.95c5.21,-0.22 10.02,-0.37 14.83,-0.41c16.27,-0.13 32.55,-0.23 49.19,-0.21c1.13,0.19 1.89,0.27 2.66,0.35z" fill="#FEFEFE" id="svg_69" opacity="1"/>
  <path d="m208.47,458.75c-3.49,-3.54 -6.57,-7.09 -9.92,-10.38c-1.9,-1.86 -1.7,-3.25 0.56,-5.25c7.6,-7.65 14.72,-14.9 22.11,-22.3c1.52,-1.48 2.77,-2.81 4.36,-4.23c1.04,-0.24 1.73,-0.38 2.88,-0.38c21.06,0.25 41.67,0.35 62.42,0.71c1.07,0.98 2.01,1.7 3.12,2.69c9.05,9.01 17.92,17.74 26.3,26.01c-3.7,4.24 -7.02,8.04 -10.34,11.85c-0.39,0.29 -0.77,0.57 -1.89,0.87c-31.55,0.01 -62.38,0 -93.21,0.03c-1.62,0 -3.24,0.4 -4.86,0.61c-0.41,-0.04 -0.82,-0.09 -1.53,-0.23z" fill="#FEFEFE" id="svg_70" opacity="1"/>
  <path d="m366.84,493.63c-29.58,0.03 -59.17,0.07 -89.17,-0.26c1.78,-2.8 3.94,-5.27 6.19,-7.66c5.42,-5.78 10.88,-11.52 16.33,-17.29c13.92,-0.13 27.84,-0.26 42.31,0.02c8.28,8.15 16.03,15.88 23.83,23.86c0.2,0.55 0.34,0.86 0.47,1.21c-0.01,0.04 0.04,0.12 0.04,0.12z" fill="#FEFEFE" id="svg_71" opacity="1"/>
  <path d="m215.41,468.2c6.42,6.4 12.42,12.65 18.36,18.95c1.77,1.88 3.37,3.9 5.06,6.19c-11.58,0.33 -23.17,0.33 -35.07,0.33c0,-8.57 0,-16.81 0,-25.6c3.75,0 7.48,0 11.65,0.13z" fill="#FEFEFE" id="svg_72" opacity="1"/>
  <path d="m428.13,468.25c3.13,-0.15 6.27,-0.3 9.8,-0.47c0,8.67 0,17.03 0,25.96c-10.64,0 -21.25,0 -32.32,-0.37c0.72,-1.86 1.81,-3.47 3.13,-4.85c6.43,-6.79 12.92,-13.52 19.39,-20.27z" fill="#FCFCFC" id="svg_73" opacity="1"/>
  <path d="m436.16,458.68c3.33,-4.27 7.06,-8.39 11.98,-13.83c-9.48,-8.98 -18.94,-17.93 -28.46,-27.15c0.48,-0.63 1.02,-0.99 2.11,-0.98c9.85,8.99 19.15,17.59 28.87,26.59c7.64,-7.77 16.14,-16.38 24.59,-25.04c0.39,-0.4 0.36,-1.2 0.53,-1.81c0.89,0.03 1.79,0.07 3.09,0.32c-9.38,9.32 -19.17,18.43 -29.3,27.86c5.14,5.4 8.86,9.3 12.63,13.52c-0.46,0.49 -0.98,0.66 -2.08,0.49c-3.96,-3.83 -7.33,-7.33 -11.25,-11.39c-3.6,4.28 -6.72,7.99 -9.83,11.69c-0.83,-0.04 -1.66,-0.08 -2.88,-0.27z" fill="#A0A0A0" id="svg_74" opacity="1"/>
  <path d="m309.91,457.63c3.37,-3.97 6.69,-7.77 10.39,-12.01c-8.38,-8.27 -17.25,-17 -26.16,-26.29c0.28,-0.82 0.6,-1.08 1.2,-1.19c8.76,8.98 17.23,17.81 25.6,26.53c10.16,-9.97 19.27,-18.91 28.7,-27.97c0.98,0.01 1.64,0.12 2.31,0.24c-8.09,8.29 -16.15,16.61 -24.31,24.83c-1.26,1.27 -3.02,2.06 -4.84,3.26c4.83,5.06 8.57,8.98 12.37,13.23c-0.75,0.5 -1.57,0.68 -2.84,0.45c-3.66,-3.9 -6.85,-7.37 -10.05,-10.87c-4.26,3.65 -8.07,6.91 -11.87,10.17c0,0 -0.33,0.03 -0.33,0.03c0,0 -0.22,-0.25 -0.17,-0.41z" fill="#A0A0A0" id="svg_75" opacity="1"/>
  <path d="m210.36,459.17c1.26,-0.4 2.88,-0.8 4.5,-0.8c30.83,-0.03 61.66,-0.02 92.98,0.05c-0.76,0.39 -2,1 -3.24,1c-31.29,0.01 -62.59,-0.03 -94.24,-0.25z" fill="#A4A4A4" id="svg_76" opacity="1"/>
  <path d="m439.5,459c2.65,-3.75 5.77,-7.46 9.37,-11.74c3.92,4.06 7.29,7.56 10.84,11.33c-6.47,0.33 -13.11,0.39 -20.21,0.41z" fill="#FCFCFC" id="svg_77" opacity="1"/>
  <path d="m310.72,458.37c3.49,-3.62 7.3,-6.88 11.56,-10.53c3.2,3.5 6.39,6.97 9.64,10.78c-6.93,0.26 -13.92,0.18 -21.2,-0.25z" fill="#FCFCFC" id="svg_78" opacity="1"/>
  <path d="m185.49,459c2.09,-3.17 4.66,-6.29 7.34,-9.72c1.1,-0.23 2.46,-0.55 3.01,-0.02c3.04,2.9 5.88,6.01 8.93,9.34c-6.18,0.34 -12.5,0.39 -19.28,0.4z" fill="#FCFCFC" id="svg_79" opacity="1"/>
  <path d="m427.73,468.17c-6.07,6.83 -12.56,13.56 -18.99,20.35c-1.32,1.38 -2.41,2.99 -3.59,4.82c-1.17,0.27 -2.35,0.2 -3.96,0.03c7.53,-8.29 15.51,-16.48 23.61,-24.97c0.93,-0.3 1.73,-0.31 2.93,-0.23z" fill="#ABABAB" id="svg_80" opacity="1"/>
  <path d="m299.83,468.27c-5.09,5.92 -10.55,11.66 -15.97,17.44c-2.25,2.39 -4.41,4.86 -6.65,7.61c-0.91,0.27 -1.78,0.23 -3.06,-0.02c7.55,-8.34 15.49,-16.47 23.59,-24.89c0.68,-0.28 1.2,-0.29 2.09,-0.14z" fill="#ABABAB" id="svg_81" opacity="1"/>
  <path d="m367.28,493.69c-0.44,-0.06 -0.49,-0.14 -0.47,-0.45c-0.17,-0.61 -0.35,-0.9 -0.54,-1.19c-7.74,-7.73 -15.49,-15.46 -23.32,-23.5c0.71,-0.41 1.52,-0.51 2.73,-0.53c8.4,8.28 16.4,16.48 24.5,24.98c-0.76,0.45 -1.61,0.6 -2.9,0.69z" fill="#A0A0A0" id="svg_82" opacity="1"/>
  <path d="m337.79,291.84c-14.04,2.26 -27.59,2.31 -40.84,-2.08c-3.43,-1.13 -6.83,-2.69 -9.88,-4.62c-6.9,-4.39 -7.15,-10.5 0.13,-14.23c6.67,-3.43 14.1,-6.09 21.48,-7.29c14.81,-2.41 29.51,-1.26 43.34,5.43c1.19,0.58 2.37,1.23 3.43,2.02c6.19,4.58 6.38,9.98 -0.28,13.8c-5.24,3.01 -11.28,4.63 -17.38,6.97z" fill="#FCFCFC" id="svg_83" opacity="1"/>
  <path d="m342.01,212.22c5.33,5.71 10.65,11.43 15.98,17.63c0,0.48 -0.09,0.95 -0.09,0.95c-23.63,0.02 -47.25,0.04 -71.34,-0.32c0.72,-1.89 1.82,-3.49 3.12,-4.92c4.1,-4.52 8.26,-8.97 12.4,-13.44c0,0 0.06,-0.26 0.41,-0.27c13.06,-0.1 25.77,-0.2 38.72,-0.1c0.43,0.29 0.61,0.38 0.8,0.47z" fill="#FEFEFE" id="svg_84" opacity="1"/>
  <path d="m267.45,332.04c-3.31,2.49 -6.8,5.62 -10.89,7.11c-4.75,1.72 -8.14,-0.59 -10.53,-5.81c6.96,-0.7 13.96,-1.05 21.42,-1.3z" fill="#FCFCFC" id="svg_94" opacity="1"/>
  <path d="m321.89,239.5c1.42,0.76 3.17,1.47 3.23,2.3c0.29,3.93 0.13,7.9 0.13,12.03c-2.95,0 -5.38,0 -8.16,0c0,-4.61 0,-9.18 0,-14.12c1.44,-0.07 2.89,-0.14 4.8,-0.21z" fill="#FCFCFC" id="svg_95" opacity="1"/>
  <path d="m317.36,311.82c-0.18,-0.71 -0.36,-1.42 -0.67,-2.47c-0.02,-2.48 0.1,-4.63 0.24,-7.07c2.62,0 5.18,0 8.36,0c0,1.98 0,3.91 0.12,6.28c-0.05,1.17 -0.21,1.9 -0.82,3.02c-1.51,1.3 -2.59,2.2 -3.53,2.99c-1.32,-0.98 -2.51,-1.86 -3.7,-2.75z" fill="#FCFCFC" id="svg_97" opacity="1"/>
  <path d="m301.74,211.99c-3.8,4.6 -7.96,9.05 -12.06,13.57c-1.3,1.43 -2.4,3.03 -3.58,4.89c-0.69,0.39 -1.38,0.44 -2.44,0.45c-0.52,-1.07 -0.68,-2.1 -0.4,-3.51c5.61,-5.43 10.78,-10.5 15.96,-15.56c0.72,0.01 1.45,0.02 2.52,0.16z" fill="#ABABAB" id="svg_99" opacity="1"/>
  <path d="m302.74,331.52c-0.7,0.46 -1.58,0.7 -2.59,0.64c-0.06,-0.62 0.12,-0.86 0.6,-1.14c0.74,0.02 1.28,0.16 1.99,0.5z" fill="#353535" id="svg_102" opacity="1"/>
  <path d="m355.65,331.91c-0.04,0.14 -0.23,0.27 -0.45,0.2c-0.02,-0.21 0.3,-0.21 0.45,-0.2z" fill="#353535" id="svg_103" opacity="1"/>
  <path d="m358.19,230.9c-0.29,-0.1 -0.2,-0.57 -0.04,-0.74c0.16,-0.18 0.51,-0.17 0.69,-0.16c-0.01,0.34 -0.18,0.67 -0.65,0.9z" fill="#ABABAB" id="svg_104" opacity="1"/>
  <path d="m352.34,416.82c-1.06,0 -1.72,-0.11 -3.16,-0.29c-18.51,-0.05 -36.23,-0.05 -54.39,-0.17c-1.65,0.02 -2.85,0.17 -4.06,0.31c-20.6,-0.11 -41.21,-0.21 -62.25,-0.81c0.77,-1.99 1.94,-3.5 3.14,-4.98c2.11,-2.58 4.24,-5.15 6.36,-7.72c0.47,0.29 0.93,0.59 1.97,1.12c4.86,1.33 9.11,3.15 13.45,3.38c8.8,0.48 17.65,0.11 26.48,0.09c1.11,-0.04 2.23,-0.08 3.76,-0.19c15.39,0.04 30.35,0.2 45.31,0.23c9.97,0.02 19.94,-0.17 30.73,-0.25c1.7,0.08 2.59,0.14 3.94,0.23c8.61,0.03 16.82,0.63 24.9,-0.18c5.23,-0.52 10.25,-3.08 15.6,-4.77c0.23,-0.04 0.67,-0.2 0.82,0.13c1.36,1.64 2.62,2.91 3.76,4.28c2.46,2.92 4.87,5.89 7.29,8.84c-16.27,0.11 -32.55,0.21 -48.82,0.34c-4.81,0.04 -9.62,0.19 -14.83,0.41z" fill="#252525" id="svg_105" opacity="1"/>
  <path d="m363.16,407.73c-0.89,-0.05 -1.78,-0.11 -3.07,-0.38c12.64,-13.43 25.67,-26.68 38.75,-39.88c4.55,-4.6 9.22,-9.09 14.14,-13.7c0.55,0.44 0.79,0.95 0.69,2.02c-8.32,8.47 -16.33,16.33 -24.21,24.34c-0.85,0.86 -0.89,2.52 -1.56,3.93c-0.49,0.44 -0.72,0.75 -1.31,0.96c-1.59,0.57 -3.05,1.01 -4.01,1.95c-5.91,5.77 -11.75,11.62 -17.53,17.52c-0.85,0.87 -1.27,2.15 -1.89,3.24z" fill="#A0A0A0" id="svg_106" opacity="1"/>
  <path d="m380.25,342.23c2.76,-2.26 5.77,-4.22 9.21,-6.48c0.43,0.48 1.34,1.49 2.4,2.77c-3.69,1.51 -7.53,2.76 -11.61,3.71z" fill="#B8B8B8" id="svg_110" opacity="1"/>
  <path d="m320.37,331.81c0.55,-2.67 1.52,-5.24 2.89,-8.22c1.09,-0.58 1.78,-0.75 2.48,-0.93c-0.24,2.8 -0.48,5.6 -0.7,8.82c-1.41,0.43 -2.84,0.43 -4.67,0.33z" fill="#353535" id="svg_111" opacity="1"/>
  <path d="m367.39,331.77c-0.29,-3.5 0.15,-6.62 5.08,-6.75c-0.17,2.2 -0.31,4.06 -0.45,6.31c-1.41,0.44 -2.81,0.49 -4.63,0.44z" fill="#232323" id="svg_114" opacity="1"/>
  <path d="m359.06,225.54c-4.74,-4.08 -9.42,-8.61 -14.31,-13.44c4.49,-0.3 9.19,-0.3 14.37,-0.3c0,4.5 0,8.89 -0.06,13.74z" fill="#FEFEFE" id="svg_115" opacity="1"/>
  <path d="m341.99,211.99c-0.17,0.14 -0.35,0.05 -0.99,-0.48c-2.54,-2.18 -4.65,-3.93 -6.73,-5.7c-3.05,-2.6 -6.08,-5.22 -9.18,-8.07c-0.15,-1.03 -0.24,-1.83 -0.2,-2.89c0.19,-0.45 0.26,-0.64 0.32,-0.83c5.61,5.52 11.21,11.05 16.89,16.94c0.06,0.37 -0.13,0.79 -0.11,1.03z" fill="#171717" id="svg_116" opacity="1"/>
  <path d="m325.13,193.58c0.02,0.63 -0.05,0.82 -0.53,1.26c-0.81,-0.14 -1.2,-0.53 -1.59,-1.35c-0.02,-1.84 -0.04,-3.26 -0.07,-4.68c0.37,-0.35 0.74,-0.7 1.38,-1.04c0.41,1.79 0.57,3.58 0.81,5.81z" fill="#ABABAB" id="svg_117" opacity="1"/>
  <path d="m298.75,211.7c-4.71,5.19 -9.88,10.26 -15.4,15.31c-0.35,-4.92 -0.35,-9.84 -0.35,-15.44c5.24,0 10.26,0 15.75,0.13z" fill="#FCFCFC" id="svg_119" opacity="1"/>
  <path d="m316.41,196.53c-4.57,4.76 -9.13,9.53 -14.03,14.29c4.19,-4.88 8.73,-9.75 13.67,-14.61c0.4,0.01 0.36,0.32 0.36,0.32z" fill="#171717" id="svg_120" opacity="1"/>
  <path d="m322.62,188.89c0.35,1.34 0.37,2.76 0.01,4.54c-1.38,0.53 -2.38,0.7 -3.44,0.52c-0.17,-1.81 -0.27,-3.26 -0.39,-5.05c-1.09,1.84 -1.77,2.98 -2.45,4.12c-0.07,-1.73 -0.14,-3.46 -0.15,-5.62c0.72,-0.42 1.37,-0.4 2.36,-0.39c1.46,0.66 2.6,1.31 4.06,1.88z" fill="#A0A0A0" id="svg_121" opacity="1"/>
  <path d="m316.28,193.38c0.75,-1.5 1.43,-2.64 2.52,-4.48c0.12,1.79 0.22,3.24 0.31,5c-0.01,0.31 -0.02,0.14 -0.31,0.32c-0.43,0.84 -0.57,1.5 -0.79,2.34c-0.26,0.42 -0.5,0.5 -0.79,0.43c0,0 -0.44,-0.18 -0.63,-0.32c-0.18,-0.14 -0.14,-0.45 -0.21,-0.58c-0.1,-0.88 -0.14,-1.61 -0.1,-2.71z" fill="#ABABAB" id="svg_122" opacity="1"/>
  <path d="m308.18,151.43c5.58,-6.35 11.81,-8.53 17.84,-6.09c6,2.43 9.76,6.76 10.14,13.5c0.37,6.7 -2.68,12.25 -8.68,14.95c-5.77,2.6 -11.37,1.93 -16.32,-2.17c-5.18,-4.3 -6.22,-9.95 -4.77,-16.23c0.29,-1.27 1.04,-2.43 1.79,-3.96z" fill="#FCFCFC" id="svg_123" opacity="1"/>
  <path d="m475.33,416.43c0.28,0.64 0.31,1.44 -0.08,1.84c-8.45,8.66 -16.95,17.27 -24.59,25.04c-9.72,-9 -19.02,-17.6 -28.36,-26.52c17.49,-0.33 35.03,-0.36 53.03,-0.36z" fill="#FEFEFE" id="svg_124" opacity="1"/>
  <path d="m388.16,383.93c0.41,-1.28 0.45,-2.94 1.3,-3.8c7.88,-8.01 15.89,-15.87 24.16,-23.92c0.34,9.52 1.16,19.26 0.12,28.8c-0.57,5.23 -4.27,10.12 -7,15.55c-0.85,0.52 -1.26,0.66 -1.73,0.44c-5.65,-5.93 -11.25,-11.5 -16.85,-17.07z" fill="#FCFCFC" id="svg_125" opacity="1"/>
  <path d="m405.07,401.36c0.41,-0.14 0.82,-0.28 1.55,-0.49c2.4,2.56 4.47,5.2 6.57,7.81c1.91,2.38 3.86,4.73 5.81,7.48c-0.75,0.31 -1.51,0.23 -2.64,0.04c-2.79,-3.08 -5.2,-6.05 -7.66,-8.97c-1.14,-1.37 -2.4,-2.64 -3.68,-4.5c0.21,-0.78 0.25,-1.06 0.05,-1.37z" fill="#171717" id="svg_126" opacity="1"/>
  <path d="m198.81,440.3c-1.38,1.16 -2.76,2.33 -4.67,3.94c-8.69,-9.09 -17.32,-18.12 -25.93,-27.47c17.22,-0.34 34.44,-0.35 52.12,-0.02c-0.37,1.59 -1.22,2.82 -2.33,4.18c-6.57,6.54 -12.88,12.95 -19.19,19.37z" fill="#FEFEFE" id="svg_127" opacity="1"/>
  <path d="m227.97,355.48c3.63,2.71 7.3,5.78 10.75,9.08c5.86,5.61 11.58,11.36 18.08,17.76c-6.99,6.49 -13.58,12.61 -20.53,18.74c-5.75,-4.83 -8.39,-10.89 -8.39,-18.11c0,-9 0.02,-18 0.09,-27.47z" fill="#FCFCFC" id="svg_128" opacity="1"/>
  <path d="m237.91,403.01c-2.05,2.72 -4.18,5.29 -6.29,7.87c-1.2,1.48 -2.37,2.99 -3.59,4.84c-0.72,0.49 -1.41,0.63 -2.75,0.7c-0.87,-0.11 -1.09,-0.17 -1.31,-0.22c4.27,-4.43 8.55,-8.87 13.21,-13.39c0.38,-0.1 0.67,0.05 0.73,0.2z" fill="#171717" id="svg_129" opacity="1"/>
  <path d="m223.56,416.26c0.63,-0.01 0.85,0.05 1.38,0.27c-0.95,1.48 -2.2,2.81 -4.17,4.29c-1.31,0.1 -1.9,0.04 -2.5,-0.01c0.84,-1.24 1.69,-2.47 2.52,-4.03c0.78,-0.37 1.57,-0.41 2.77,-0.52z" fill="#A4A4A4" id="svg_130" opacity="1"/>
  <path d="m279.89,407.41c-8.84,0.36 -17.69,0.73 -26.49,0.25c-4.34,-0.23 -8.59,-2.05 -13.17,-3.37c0.76,-1.82 1.61,-3.6 2.89,-4.97c4.63,-4.96 9.41,-9.78 14.7,-15.24c3.28,3.24 6.23,6.03 9.02,8.97c4.41,4.62 8.71,9.33 13.05,14.36z" fill="#FCFCFC" id="svg_131" opacity="1"/>
  <path d="m218,420.93c0.87,-0.07 1.46,-0.01 2.51,0.04c-6.68,7.25 -13.8,14.5 -21.23,21.86c-0.32,-0.47 -0.33,-1.06 -0.41,-2.09c6.25,-6.86 12.56,-13.27 19.13,-19.81z" fill="#B8B8B8" id="svg_132" opacity="1"/>
  <path d="m290.88,416.92c1.06,-0.39 2.26,-0.54 3.93,-0.3c0.39,0.7 0.32,1.03 0.24,1.36c-0.31,0.27 -0.63,0.53 -1.09,1.08c-1.07,-0.44 -2.01,-1.16 -3.08,-2.14z" fill="#A4A4A4" id="svg_133" opacity="1"/>
  <path d="m366.33,492.3c0.13,0.04 0.31,0.33 0.49,0.89c-0.15,-0.03 -0.29,-0.34 -0.49,-0.89z" fill="#ABABAB" id="svg_134" opacity="1"/>
  <path d="m295.34,418.14c-0.21,-0.49 -0.14,-0.82 -0.09,-1.41c17.7,-0.25 35.42,-0.25 53.61,-0.08c-8.65,9.11 -17.76,18.05 -27.92,28.02c-8.37,-8.72 -16.84,-17.55 -25.6,-26.53z" fill="#FEFEFE" id="svg_135" opacity="1"/>
  <path d="m389.02,331.44c-0.47,0.39 -0.93,0.39 -1.99,0.12c-1.75,-0.39 -2.91,-0.51 -4.07,-0.63c0.92,-5.8 1.89,-11.56 8.13,-15.52c2.19,6.11 -1.35,10.72 -2.07,16.03z" fill="#232323" id="svg_136" opacity="1"/>
  <path d="m382.95,331.12c1.17,-0.07 2.33,0.05 3.72,0.42c-0.99,0.41 -2.22,0.58 -3.56,0.46c-0.1,-0.29 -0.16,-0.68 -0.16,-0.88z" fill="#353535" id="svg_137" opacity="1"/>
  <path d="m289.05,331.4c-1.94,0.59 -3.89,0.79 -5.94,0.7c1.24,-6.11 1.61,-12.41 7.47,-15.85c0.63,0.18 1.26,0.36 1.89,0.54c-1.14,4.74 -2.29,9.49 -3.42,14.61z" fill="#353535" id="svg_138" opacity="1"/>
  <path d="m335.62,331.86c-0.05,0.15 -0.22,0.3 -0.4,0.24c-0.01,-0.21 0.26,-0.25 0.4,-0.24z" fill="#353535" id="svg_140" opacity="1"/>
  <path d="m363.62,407.77c0.16,-1.13 0.58,-2.41 1.43,-3.28c5.78,-5.9 11.62,-11.75 17.53,-17.52c0.96,-0.94 2.42,-1.38 4.16,-1.66c6.06,6.11 11.6,11.83 17.15,17.55c-5.12,1.65 -10.14,4.21 -15.37,4.73c-8.08,0.81 -16.29,0.21 -24.9,0.18z" fill="#FEFEFE" id="svg_141" opacity="1"/>
  <path d="m404.12,402.82c-5.78,-5.68 -11.32,-11.4 -17.02,-17.41c0.08,-0.6 0.31,-0.91 0.8,-1.35c5.86,5.44 11.46,11.01 17.11,16.94c0.26,0.67 0.22,0.95 -0.14,1.41c-0.08,0.21 -0.52,0.37 -0.75,0.41z" fill="#A4A4A4" id="svg_142" opacity="1"/>
  <path d="m317.07,197.42c0.44,-0.36 0.68,-0.44 1.21,-1.09c0.5,-1.04 0.65,-1.67 0.81,-2.29c0,0 0.01,0.17 0.09,0.21c1.07,-0.12 2.07,-0.29 3.45,-0.4c0.77,0.46 1.16,0.85 1.84,1.25c0.38,0.81 0.47,1.61 0.62,2.64c-0.05,1.69 -0.16,3.14 -0.3,4.89c-2.52,0 -5.03,0 -7.86,0c0,-1.67 0,-3.22 0.14,-5.21z" fill="#FCFCFC" id="svg_143" opacity="1"/>
  <path d="m318.8,194.22c0.13,0.44 -0.02,1.07 -0.44,1.93c-0.13,-0.43 0.01,-1.09 0.44,-1.93z" fill="#A0A0A0" id="svg_144" opacity="1"/>
  <rect fill="#000000" height="45" id="svg_146" width="223" x="215" y="296"/>
  <rect fill="#000000" height="22" id="svg_147" width="33" x="242" y="284"/>
  <rect fill="#ffffff" height="28" id="svg_148" width="9" x="317" y="301"/>
  <ellipse cx="152" cy="217.5" fill="#242424" id="svg_149" rx="124" ry="112.5"/>
  <ellipse cx="319.5" cy="75.5" fill="#242424" id="svg_150" rx="175.5" ry="67.5"/>
  <ellipse cx="506" cy="270" fill="#242424" id="svg_151" rx="111" ry="129"/>
  <ellipse cx="404" cy="200" fill="#242424" id="svg_152" rx="43" ry="73"/>
  <ellipse cx="493" cy="122" fill="#242424" id="svg_153" rx="63" ry="41"/>
  <ellipse cx="322.5" cy="566" fill="#242424" id="svg_154" rx="171.5" ry="67"/>
  <ellipse cx="77.5" cy="334.5" fill="#242424" id="svg_155" rx="70.5" ry="146.5"/>
  <rect fill="#242424" height="109" id="svg_157" transform="matrix(1 0 0 1 0 0)" width="92" x="135" y="306"/>
  <rect fill="#242424" height="70" id="svg_158" width="63" x="240" y="132"/>
  <rect fill="#242424" height="62" id="svg_159" transform="matrix(1 0 0 1 0 0)" width="48" x="337" y="141"/>
  <rect fill="#000000" height="12" id="svg_160" width="63" x="289" y="200"/>
  <rect fill="#000000" height="85" id="svg_161" width="98" x="95" y="459"/>
  <rect fill="#000000" height="115" id="svg_162" transform="matrix(1 0 0 1 0 0)" width="74" x="506" y="389"/>
  <rect fill="#000000" height="82" id="svg_163" width="101" x="443" y="462"/>
  <rect fill="#000000" height="20" id="svg_164" width="196" x="226" y="494"/>
  <ellipse cx="565" cy="311.5" fill="#000000" id="svg_166" rx="74" ry="163.5"/>
  <ellipse cx="590" cy="463" fill="#000000" id="svg_167" rx="12" ry="17"/>
  <rect fill="#000000" height="30" id="svg_168" width="95" x="417" y="384"/>
  <rect fill="#ffffff" height="16" id="svg_170" width="73" x="284" y="213"/>
  <rect fill="#ffffff" height="16" id="svg_171" width="11" x="315" y="185"/>
  <rect fill="#000000" height="16" id="svg_172" width="17" x="328" y="176"/>
  <rect fill="#000000" height="43" id="svg_173" width="77" x="98" y="95"/>
  <rect fill="#ffffff" height="41" id="svg_174" width="306" x="164" y="417"/>
  <rect fill="#ffffff" height="24" id="svg_175" width="232" x="205" y="469"/>
  <rect fill="#ffffff" height="53" id="svg_176" width="53" x="233" y="344"/>
  <rect fill="#ffffff" height="56" id="svg_177" width="83" x="323" y="345"/>
  <rect fill="#ffffff" height="13" id="svg_178" width="146" x="249" y="394"/>
  <rect fill="#ffffff" height="15" id="svg_179" width="10" x="401" y="356"/>
  <rect fill="#000000" height="16" id="svg_180" width="17" x="410" y="400"/>
  <rect fill="#000000" height="10" id="svg_181" width="12" x="222" y="404"/>
  <rect fill="#000000" height="20" id="svg_182" width="12" x="360" y="223"/>
  <ellipse cx="28" cy="258" fill="#000000" id="svg_183" rx="17" ry="29"/>
 </g>
</svg>